<svg width="41" height="50" viewBox="0 0 41 50" fill="none" xmlns="http://www.w3.org/2000/svg">
<path d="M30.1436 10.25C30.6958 10.25 31.1435 10.6978 31.1436 11.25V48.4708C31.1434 49.0229 30.6958 49.4708 30.1436 49.4708H1.97363C1.42166 49.4705 0.973788 49.0228 0.973633 48.4708V11.25C0.973711 10.6979 1.42161 10.2503 1.97363 10.25H30.1436ZM5.74317 20.8096C5.19093 20.8097 4.74317 21.2573 4.74317 21.8096V37.9112C4.74328 38.4633 5.19101 38.9111 5.74317 38.9112H8.26856C8.82078 38.9112 9.26845 38.4634 9.26856 37.9112V21.8096C9.26856 21.2573 8.82085 20.8096 8.26856 20.8096H5.74317ZM14.7969 20.8096C14.2446 20.8096 13.7969 21.2573 13.7969 21.8096V37.9112C13.797 38.4633 14.2447 38.9112 14.7969 38.9112H17.3223C17.8743 38.911 18.3221 38.4632 18.3223 37.9112V21.8096C18.3223 21.2575 17.8744 20.8098 17.3223 20.8096H14.7969ZM23.8457 20.8096C23.2934 20.8096 22.8457 21.2573 22.8457 21.8096V37.9112C22.8459 38.4633 23.2935 38.9112 23.8457 38.9112H26.3711C26.9231 38.911 27.371 38.4632 27.3711 37.9112V21.8096C27.3711 21.2574 26.9232 20.8098 26.3711 20.8096H23.8457Z" fill="white"/>
<path d="M37.1885 38.1738V22.3008C37.1885 21.4724 36.5168 20.8009 35.6885 20.8008H30.1133C29.2851 20.8005 28.6133 20.1291 28.6133 19.3008C28.6133 18.4725 29.2851 17.801 30.1133 17.8008H35.6885C38.1736 17.8009 40.1885 19.8156 40.1885 22.3008V38.1738C40.1884 40.6589 38.1736 42.6737 35.6885 42.6738H28.1289C27.3005 42.6738 26.629 42.0022 26.6289 41.1738C26.6289 40.3454 27.3005 39.6738 28.1289 39.6738H35.6885C36.5167 39.6737 37.1884 39.0021 37.1885 38.1738Z" fill="white"/>
<path d="M19.5469 15.9053C20.0175 16.0101 20.5028 16.0664 20.998 16.0664V18.0664C20.3503 18.0664 19.7194 17.9926 19.1123 17.8574C17.3459 19.5163 14.9709 20.5352 12.3564 20.5352V18.5352C14.4404 18.5352 16.3315 17.7252 17.7432 16.3994L18.5146 15.6758L19.5469 15.9053ZM27.6367 9.42676C27.6365 5.87488 24.8475 2.97496 21.3398 2.79688L20.998 2.78809C19.8327 2.78809 18.7429 3.08695 17.7949 3.61035L16.8662 4.12305L15.9209 3.6416C14.8498 3.09635 13.6409 2.78711 12.3564 2.78711C8.14418 2.78716 4.70409 6.09552 4.49316 10.2559L4.4834 10.6611C4.4834 15.0098 8.00824 18.5351 12.3564 18.5352V20.5352C6.90344 20.5351 2.4834 16.1142 2.4834 10.6611C2.48344 5.20815 6.90346 0.787167 12.3564 0.787109C13.9665 0.787109 15.4853 1.17581 16.8281 1.85938C18.0644 1.17678 19.4859 0.788086 20.998 0.788086C25.7691 0.788319 29.6365 4.65567 29.6367 9.42676C29.6367 14.198 25.7693 18.0662 20.998 18.0664V16.0664C24.6645 16.0662 27.6367 13.0936 27.6367 9.42676Z" fill="white"/>
</svg>
