<svg width="52" height="51" viewBox="0 0 52 51" fill="none" xmlns="http://www.w3.org/2000/svg">
<path d="M7.8734 49.0834C7.3251 50.0423 6.10278 50.3749 5.14391 49.8265C4.18541 49.2782 3.85267 48.0567 4.40075 47.098L7.8734 49.0834ZM10.1566 37.0326C10.705 36.0741 11.9264 35.7413 12.8851 36.2894C13.844 36.8377 14.1766 38.0601 13.6283 39.0189L7.8734 49.0834L4.40075 47.098L10.1566 37.0326Z" fill="white"/>
<path d="M43.1588 49.0834C43.7071 50.0423 44.9294 50.3749 45.8883 49.8265C46.8468 49.2782 47.1796 48.0567 46.6315 47.098L43.1588 49.0834ZM40.8756 37.0326C40.3272 36.0741 39.1058 35.7413 38.1471 36.2894C37.1882 36.8377 36.8556 38.0601 37.4039 39.0189L43.1588 49.0834L46.6315 47.098L40.8756 37.0326Z" fill="white"/>
<path d="M4.77549 1.92237C6.79655 -0.0405308 10.0742 -0.0405308 12.0953 1.92237C12.5283 2.34302 12.3974 3.03116 11.9229 3.40442C9.19654 5.54915 6.85147 8.13307 5.00238 11.0457C4.4711 11.8825 3.39701 12.3003 2.63378 11.6679C2.53184 11.5834 2.43252 11.4944 2.33611 11.4007C0.315047 9.43783 0.315047 6.25446 2.33611 4.29156L4.77549 1.92237Z" fill="white"/>
<path d="M47.373 2.063C45.3519 0.100094 42.0742 0.100094 40.0531 2.063C39.6201 2.48364 39.7511 3.17178 40.2255 3.54504C42.9519 5.68978 45.297 8.2737 47.1461 11.1863C47.6773 12.0232 48.7514 12.441 49.5147 11.8085C49.6166 11.724 49.7159 11.635 49.8123 11.5414C51.8334 9.57846 51.8334 6.39509 49.8123 4.43218L47.373 2.063Z" fill="white"/>
<path d="M26.0724 0.450195C39.2855 0.450195 49.997 11.2648 49.9973 24.6055C49.9973 37.9463 39.2857 48.7617 26.0724 48.7617C12.8593 48.7615 2.14844 37.9462 2.14844 24.6055C2.14867 11.265 12.8594 0.450423 26.0724 0.450195ZM26.0733 10.1856C25.5214 10.1858 25.0735 10.6336 25.0733 11.1856V26.2891H15.4405C14.8884 26.2891 14.4409 26.7371 14.4405 27.2891C14.4405 27.8414 14.8882 28.2891 15.4405 28.2891H26.0733C26.6256 28.2891 27.0733 27.8414 27.0733 27.2891V11.1856C27.0731 10.6334 26.6255 10.1856 26.0733 10.1856Z" fill="white"/>
</svg>
