<svg width="50" height="63" viewBox="0 0 50 63" fill="none" xmlns="http://www.w3.org/2000/svg">
<path d="M45.7334 44.3506V31.3379H37.9902C36.8857 31.3379 35.9902 30.4425 35.9902 29.3379C35.9902 28.2333 36.8857 27.3379 37.9902 27.3379H45.7334C47.9425 27.3379 49.7334 29.1288 49.7334 31.3379V44.3506C49.7334 46.5597 47.9425 48.3506 45.7334 48.3506H36.9072C35.8027 48.3506 34.9072 47.4552 34.9072 46.3506C34.9073 45.2461 35.8027 44.3506 36.9072 44.3506H45.7334Z" fill="white"/>
<path d="M0.0976562 25.667C0.0976562 24.5624 0.993087 23.667 2.09766 23.667H39.2378C40.3424 23.667 41.2378 24.5624 41.2378 25.667V41.4243C41.2378 49.1563 34.9698 55.4243 27.2378 55.4243H14.0977C6.36567 55.4243 0.0976562 49.1563 0.0976562 41.4243V25.667Z" fill="white"/>
<path d="M19.7083 9.20839C17.698 12.7738 21.4869 19.5189 21.3651 18.2076C21.2433 16.8963 19.8667 13.7436 22.028 9.92833C24.4473 5.65738 22.9739 1.87904 21.7165 0.254817C21.5863 0.0866543 21.3492 0.172508 21.3528 0.385144C21.3804 2.04408 21.7681 5.55527 19.7083 9.20839Z" fill="white"/>
<path d="M27.9912 11.6422C26.5626 14.2202 29.1774 19.2158 29.0962 18.2526C29.0149 17.2894 28.0968 14.9736 29.5382 12.171C31.1276 9.08092 30.5788 6.66335 29.4838 5.2176C29.3501 5.04105 29.097 5.14024 29.1046 5.36158C29.1555 6.83435 29.338 9.2119 27.9912 11.6422Z" fill="white"/>
<path d="M12.3428 11.6393C11.1433 14.3316 13.529 19.2129 13.4478 18.2497C13.3665 17.2864 12.4484 14.9706 13.8898 12.1681C15.4792 9.07801 14.9305 6.66045 13.8354 5.21469C13.7017 5.03815 13.4488 5.13725 13.4574 5.35856C13.5097 6.70645 13.6797 8.63865 12.3428 11.6393Z" fill="white"/>
<path d="M10.6826 59.0703C10.6826 58.518 11.1303 58.0703 11.6826 58.0703H32.1774C32.7297 58.0703 33.1774 58.518 33.1774 59.0703V60.54C33.1774 61.3684 32.5058 62.04 31.6774 62.04H12.1826C11.3542 62.04 10.6826 61.3684 10.6826 60.54V59.0703Z" fill="white"/>
</svg>
