<svg width="41" height="45" viewBox="0 0 41 45" fill="none" xmlns="http://www.w3.org/2000/svg">
<path d="M38.5332 37.0898C38.5331 33.9784 36.0109 31.4561 32.8994 31.4561C29.788 31.4562 27.2657 33.9784 27.2656 37.0898C27.2656 40.2013 29.7879 42.7235 32.8994 42.7236V44.7236L32.5068 44.7139C28.6032 44.516 25.473 41.3861 25.2754 37.4824L25.2656 37.0898C25.2657 32.8739 28.6834 29.4562 32.8994 29.4561L33.292 29.4658C37.3257 29.6701 40.5331 33.0054 40.5332 37.0898L40.5234 37.4824C40.3192 41.5162 36.9839 44.7236 32.8994 44.7236V42.7236C36.011 42.7236 38.5332 40.2014 38.5332 37.0898Z" fill="white"/>
<path d="M14.1035 37.0898C14.1034 33.9784 11.5812 31.4561 8.46973 31.4561C5.35831 31.4562 2.83603 33.9784 2.83594 37.0898C2.83594 40.2013 5.35825 42.7235 8.46973 42.7236V44.7236L8.07715 44.7139C4.17352 44.516 1.04335 41.3861 0.845703 37.4824L0.835938 37.0898C0.836034 32.8739 4.25374 29.4562 8.46973 29.4561L8.8623 29.4658C12.896 29.6701 16.1034 33.0054 16.1035 37.0898L16.0938 37.4824C15.8895 41.5162 12.5542 44.7236 8.46973 44.7236V42.7236C11.5813 42.7236 14.1035 40.2014 14.1035 37.0898Z" fill="white"/>
<path d="M16.3732 28.416L16.5197 28.667C16.8809 29.2387 17.3633 29.717 17.9005 30.0762L18.5167 30.502C19.375 31.1174 20.0986 31.73 20.7052 32.3164C20.3315 32.6777 20.0018 33.0288 19.713 33.3652L19.547 33.5459C18.693 34.4155 17.4481 34.8258 16.3575 34.8779C15.2159 34.9325 13.7113 34.6053 12.8624 33.332L12.7277 33.1104C12.1417 32.0597 12.183 30.7688 12.8351 29.7578L12.9835 29.5459L15.3234 26.4785C15.6633 27.1086 16.0132 27.7543 16.3732 28.416Z" fill="white"/>
<path d="M35.6872 1.10412C35.9394 0.960846 36.4073 0.773399 36.9704 0.911738C37.6304 1.07409 38.0153 1.57798 38.1579 2.04748C38.282 2.45655 38.2354 2.83562 38.1784 3.08556L38.1189 3.32775C37.7858 4.60216 36.902 6.86963 35.1716 10.5484C33.5129 14.0748 31.0372 18.9745 27.4304 25.6705L29.8542 28.774L29.9646 28.9254C30.447 29.6485 30.519 30.5729 30.154 31.3619L30.069 31.5289L28.738 33.9195C28.1288 35.0136 26.9516 35.2842 26.1462 35.2515C25.3796 35.2203 24.4295 34.9085 23.8132 34.1373L23.695 33.9771C22.8673 32.7657 21.4363 31.2021 19.1247 29.6461L18.6501 29.3345C18.339 29.1357 18.0701 28.8659 17.8708 28.5504L17.7897 28.4127C13.3834 20.3269 10.4676 14.5909 8.58951 10.6021C6.8475 6.9024 5.95771 4.62217 5.62076 3.34044L5.56021 3.09728C5.50311 2.84876 5.45517 2.47072 5.57681 2.06213C5.71654 1.59309 6.10123 1.07753 6.77505 0.91662C7.34673 0.780182 7.81782 0.978144 8.06607 1.12365C8.27078 1.24374 8.44064 1.39299 8.57877 1.54455L8.7067 1.69592L21.7028 18.3365L35.0388 1.66857L35.1687 1.51818C35.3088 1.36827 35.4807 1.22147 35.6872 1.10412ZM21.447 22.5855C20.1822 22.5855 19.156 23.6108 19.1559 24.8756C19.1559 26.1404 20.1821 27.1656 21.447 27.1656C22.7116 27.1654 23.737 26.1403 23.737 24.8756C23.7369 23.6109 22.7116 22.5857 21.447 22.5855Z" fill="white"/>
</svg>
