<svg width="51" height="52" viewBox="0 0 51 52" fill="none" xmlns="http://www.w3.org/2000/svg">
<path d="M43.6817 46.6205V31.461L21.0868 27.784L20.8891 27.7414C19.9174 27.4803 19.2819 26.5189 19.447 25.5045C19.6124 24.4908 20.5192 23.7833 21.5229 23.8434L21.7264 23.8647L44.3194 27.5436L44.6741 27.6173C46.4116 28.0645 47.6513 29.6366 47.6513 31.461V46.6205C47.6512 47.7166 46.7626 48.6053 45.6665 48.6053C44.5704 48.6053 43.6818 47.7166 43.6817 46.6205Z" fill="white"/>
<path d="M24.6495 15.1652C25.117 14.9811 25.6369 14.9811 26.1044 15.1652L48.4763 23.9777C50.1528 24.6381 50.1528 27.0107 48.4763 27.6711L26.1044 36.4836C25.6369 36.6678 25.117 36.6678 24.6495 36.4836L2.2776 27.6711C0.601074 27.0107 0.601074 24.6381 2.2776 23.9777L24.6495 15.1652Z" fill="white"/>
<path d="M24.6513 38.528C25.1185 38.712 25.6377 38.712 26.105 38.528L38.5446 33.6283C39.8469 33.1153 41.2568 34.0753 41.2568 35.475V49.7024C41.2568 50.7986 40.3681 51.6872 39.272 51.6872L28.0437 50.1256C26.0243 49.8447 23.9765 49.8336 21.9542 50.0925L9.49948 51.6872C8.40329 51.6872 7.51465 50.7986 7.51465 49.7024V34.6938C7.51465 33.2941 8.92449 32.3341 10.2268 32.847L24.6513 38.528Z" fill="white"/>
</svg>
