<svg width="59" height="46" viewBox="0 0 59 46" fill="none" xmlns="http://www.w3.org/2000/svg">
<path d="M30.2461 41.3018C30.2461 43.3993 28.5458 45.0997 26.4483 45.0997C24.3508 45.0997 22.6504 43.3993 22.6504 41.3018C22.6504 39.2043 24.3508 37.5039 26.4483 37.5039C28.5458 37.5039 30.2461 39.2043 30.2461 41.3018Z" fill="white"/>
<path d="M47.9698 41.3018C47.9698 43.3993 46.2694 45.0997 44.1719 45.0997C42.0744 45.0997 40.374 43.3993 40.374 41.3018C40.374 39.2043 42.0744 37.5039 44.1719 37.5039C46.2694 37.5039 47.9698 39.2043 47.9698 41.3018Z" fill="white"/>
<path d="M54.3057 0.546875C56.8531 0.547259 58.7292 2.88816 58.2256 5.34375L58.1689 5.58203L53.332 23.6357C52.8634 25.3843 51.278 26.5995 49.4678 26.5996H19.4229L15.7539 30.7744C14.6184 32.0667 15.5365 34.0947 17.2568 34.0947H51.7695L51.8721 34.0996C52.3762 34.1509 52.7695 34.577 52.7695 35.0947C52.7695 35.6124 52.3763 36.0386 51.8721 36.0898L51.7695 36.0947H17.2568C13.8161 36.0947 11.9807 32.0386 14.252 29.4541L17.8652 25.3418L11.7578 2.54688H1.97559C1.4233 2.54688 0.975586 2.09916 0.975586 1.54688C0.975632 0.994629 1.42333 0.546875 1.97559 0.546875H54.3057Z" fill="white"/>
</svg>
