<svg width="58" height="58" viewBox="0 0 58 58" fill="none" xmlns="http://www.w3.org/2000/svg">
<path d="M18.9843 50.1397C18.8313 50.2927 18.6328 50.3919 18.4187 50.4225L6.66958 52.101C6.00962 52.1952 5.44393 51.6296 5.53821 50.9696L7.21665 39.2205C7.24725 39.0063 7.3465 38.8078 7.4995 38.6548L37.1829 8.9714C37.5735 8.58088 38.2066 8.58087 38.5972 8.9714L48.6678 19.042C49.0583 19.4326 49.0583 20.0657 48.6678 20.4562L18.9843 50.1397Z" fill="white"/>
<path d="M44.9812 1.17311C45.2936 0.860688 45.8001 0.860688 46.1126 1.17311L56.466 11.5266C56.7785 11.839 56.7785 12.3455 56.466 12.658L51.855 17.269C51.5426 17.5814 51.036 17.5814 50.7236 17.269L40.3701 6.91553C40.0577 6.60311 40.0577 6.09658 40.3701 5.78416L44.9812 1.17311Z" fill="white"/>
</svg>
