<svg width="32" height="39" viewBox="0 0 32 39" fill="none" xmlns="http://www.w3.org/2000/svg">
<path d="M0 0.851562H32V32.8516H0V0.851562Z" fill="#454545"/>
<path d="M5 9.35156C5 8.79928 5.44772 8.35156 6 8.35156H26C26.5523 8.35156 27 8.79928 27 9.35156V27.3516C27 27.9038 26.5523 28.3516 26 28.3516H6C5.44772 28.3516 5 27.9038 5 27.3516V9.35156Z" fill="#BDBDBD"/>
<path d="M9 6.85156C9 6.02314 9.67157 5.35156 10.5 5.35156C11.3284 5.35156 12 6.02314 12 6.85156V10.8516C12 11.68 11.3284 12.3516 10.5 12.3516C9.67157 12.3516 9 11.68 9 10.8516V6.85156Z" fill="#B6B6B6"/>
<path d="M20 6.85156C20 6.02314 20.6716 5.35156 21.5 5.35156C22.3284 5.35156 23 6.02314 23 6.85156V10.8516C23 11.68 22.3284 12.3516 21.5 12.3516C20.6716 12.3516 20 11.68 20 10.8516V6.85156Z" fill="#B6B6B6"/>
<path d="M9 15.1016C9 14.6873 9.33579 14.3516 9.75 14.3516H22.25C22.6642 14.3516 23 14.6873 23 15.1016C23 15.5158 22.6642 15.8516 22.25 15.8516H9.75C9.33579 15.8516 9 15.5158 9 15.1016Z" fill="#454545"/>
<path d="M9 19.1016C9 18.6873 9.33579 18.3516 9.75 18.3516H22.25C22.6642 18.3516 23 18.6873 23 19.1016C23 19.5158 22.6642 19.8516 22.25 19.8516H9.75C9.33579 19.8516 9 19.5158 9 19.1016Z" fill="#454545"/>
<path d="M9 23.1016C9 22.6873 9.33579 22.3516 9.75 22.3516H22.25C22.6642 22.3516 23 22.6873 23 23.1016C23 23.5158 22.6642 23.8516 22.25 23.8516H9.75C9.33579 23.8516 9 23.5158 9 23.1016Z" fill="#454545"/>
<path d="M18 36.8516C18 37.9561 17.1046 38.8516 16 38.8516C14.8954 38.8516 14 37.9561 14 36.8516C14 35.747 14.8954 34.8516 16 34.8516C17.1046 34.8516 18 35.747 18 36.8516Z" fill="#BDBDBD"/>
</svg>
