<svg width="32" height="39" viewBox="0 0 32 39" fill="none" xmlns="http://www.w3.org/2000/svg">
<path d="M0 0.851562H32V32.8516H0V0.851562Z" fill="#454545"/>
<path d="M5 7.85156C5 6.74699 5.89543 5.85156 7 5.85156H13C14.1046 5.85156 15 6.74699 15 7.85156V13.8516C15 14.9561 14.1046 15.8516 13 15.8516H7C5.89543 15.8516 5 14.9561 5 13.8516V7.85156Z" fill="#BDBDBD"/>
<path d="M5 19.8516C5 18.747 5.89543 17.8516 7 17.8516H13C14.1046 17.8516 15 18.747 15 19.8516V25.8516C15 26.9561 14.1046 27.8516 13 27.8516H7C5.89543 27.8516 5 26.9561 5 25.8516V19.8516Z" fill="#BDBDBD"/>
<path d="M17 7.85156C17 6.74699 17.8954 5.85156 19 5.85156H25C26.1046 5.85156 27 6.74699 27 7.85156V13.8516C27 14.9561 26.1046 15.8516 25 15.8516H19C17.8954 15.8516 17 14.9561 17 13.8516V7.85156Z" fill="#BDBDBD"/>
<path d="M17 19.8516C17 18.747 17.8954 17.8516 19 17.8516H25C26.1046 17.8516 27 18.747 27 19.8516V25.8516C27 26.9561 26.1046 27.8516 25 27.8516H19C17.8954 27.8516 17 26.9561 17 25.8516V19.8516Z" fill="#BDBDBD"/>
<path d="M18 36.8516C18 37.9561 17.1046 38.8516 16 38.8516C14.8954 38.8516 14 37.9561 14 36.8516C14 35.747 14.8954 34.8516 16 34.8516C17.1046 34.8516 18 35.747 18 36.8516Z" fill="#BDBDBD"/>
</svg>
