<svg width="32" height="39" viewBox="0 0 32 39" fill="none" xmlns="http://www.w3.org/2000/svg">
<path d="M0 0.851562H32V32.8516H0V0.851562Z" fill="#454545"/>
<path d="M25 10.502C25.5523 10.502 26 10.9497 26 11.502V23.2988C26 23.8321 25.7869 24.3432 25.4082 24.7188L22.25 27.8496L19.085 30.9873C18.7104 31.3586 18.2041 31.5674 17.6768 31.5674H7C6.44782 31.5674 6.00017 31.1195 6 30.5674V11.502C6 10.9497 6.44772 10.502 7 10.502H25ZM11.625 12.5186C11.1072 12.5186 10.6875 12.9383 10.6875 13.4561V14.6855H9.42871C8.916 14.6855 8.50021 15.1006 8.5 15.6133C8.5 16.1261 8.91587 16.542 9.42871 16.542H10.6875V17.7715C10.6875 18.2893 11.1072 18.709 11.625 18.709C12.1428 18.709 12.5625 18.2893 12.5625 17.7715V16.542H13.8213C14.3341 16.542 14.75 16.1261 14.75 15.6133C14.7498 15.1006 14.334 14.6855 13.8213 14.6855H12.5625V13.4561C12.5625 12.9383 12.1428 12.5186 11.625 12.5186Z" fill="#BDBDBD"/>
<path d="M22.8745 28.7566L25.1477 26.5051C25.4634 26.1925 25.9995 26.4161 25.9995 26.8604V31.3519C25.9995 31.628 25.7757 31.8519 25.4995 31.8519H20.9649C20.5183 31.8519 20.2957 31.3109 20.613 30.9966L22.8745 28.7566Z" fill="#BDBDBD"/>
<path d="M6 4.35156C6 4.07542 6.22386 3.85156 6.5 3.85156H25.5C25.7761 3.85156 26 4.07542 26 4.35156V7.06585C26 7.34199 25.7761 7.56585 25.5 7.56585H6.5C6.22386 7.56585 6 7.34199 6 7.06585V4.35156Z" fill="#BDBDBD"/>
<path d="M18 36.8516C18 37.9561 17.1046 38.8516 16 38.8516C14.8954 38.8516 14 37.9561 14 36.8516C14 35.747 14.8954 34.8516 16 34.8516C17.1046 34.8516 18 35.747 18 36.8516Z" fill="#BDBDBD"/>
</svg>
