<svg width="32" height="33" viewBox="0 0 32 33" fill="none" xmlns="http://www.w3.org/2000/svg">
<path d="M0 0.851562H32V32.8516H0V0.851562Z" fill="#454545"/>
<path d="M25 10.5049C25.5522 10.5049 25.9999 10.9527 26 11.5049V23.3018C26 23.8352 25.7871 24.3471 25.4082 24.7227L22.25 27.8535L19.085 30.9912C18.7104 31.3625 18.2041 31.5703 17.6768 31.5703H7C6.44772 31.5703 6 31.1226 6 30.5703V11.5049C6.00007 10.9527 6.44776 10.5049 7 10.5049H25ZM11.625 12.5186C11.1072 12.5186 10.6875 12.9383 10.6875 13.4561V14.6855H9.42871C8.916 14.6855 8.50021 15.1006 8.5 15.6133C8.5 16.1261 8.91587 16.542 9.42871 16.542H10.6875V17.7715C10.6875 18.2893 11.1072 18.709 11.625 18.709C12.1428 18.709 12.5625 18.2893 12.5625 17.7715V16.542H13.8213C14.3341 16.542 14.75 16.1261 14.75 15.6133C14.7498 15.1006 14.334 14.6855 13.8213 14.6855H12.5625V13.4561C12.5625 12.9383 12.1428 12.5186 11.625 12.5186Z" fill="#F1F1F1"/>
<path d="M23.4107 28.3973L25.6838 26.1458C25.9995 25.8331 26.5357 26.0567 26.5357 26.501V30.9925C26.5357 31.2686 26.3118 31.4925 26.0357 31.4925H21.501C21.0544 31.4925 20.8318 30.9515 21.1491 30.6373L23.4107 28.3973Z" fill="#F1F1F1"/>
<path d="M6 4.35156C6 4.07542 6.22386 3.85156 6.5 3.85156H25.5C25.7761 3.85156 26 4.07542 26 4.35156V7.06585C26 7.34199 25.7761 7.56585 25.5 7.56585H6.5C6.22386 7.56585 6 7.34199 6 7.06585V4.35156Z" fill="#F1F1F1"/>
</svg>
