<svg width="17" height="17" viewBox="0 0 17 17" fill="none" xmlns="http://www.w3.org/2000/svg">
<path d="M14.7158 8C14.7158 4.41015 11.8057 1.5 8.21582 1.5C4.62597 1.5 1.71582 4.41015 1.71582 8C1.71582 11.5899 4.62597 14.5 8.21582 14.5V16C3.79754 16 0.21582 12.4183 0.21582 8C0.21582 3.58172 3.79754 0 8.21582 0C12.6341 0 16.2158 3.58172 16.2158 8C16.2158 12.4183 12.6341 16 8.21582 16V14.5C11.8057 14.5 14.7158 11.5899 14.7158 8Z" fill="#A8A8A8"/>
<path d="M12.7461 13.71C12.4533 13.4171 12.4533 12.9423 12.7462 12.6494C13.039 12.3565 13.5139 12.3565 13.8068 12.6494L16.2897 15.1323C16.5826 15.4252 16.5826 15.9 16.2897 16.1929C15.9968 16.4858 15.522 16.4858 15.2291 16.1929L12.7461 13.71Z" fill="#A8A8A8"/>
</svg>
