<svg width="32" height="33" viewBox="0 0 32 33" fill="none" xmlns="http://www.w3.org/2000/svg">
<path d="M0 0.851562H32V32.8516H0V0.851562Z" fill="#454545"/>
<path d="M13.1089 7.4346C14.1701 4.91893 17.8299 4.91893 18.8912 7.4346C19.7985 9.58546 22.0819 10.8697 24.4488 10.5596C27.2168 10.1966 29.0472 13.2819 27.3404 15.4346C25.8807 17.2753 25.8807 19.8429 27.3404 21.6836C29.047 23.8363 27.2167 26.9216 24.4488 26.5586C22.0819 26.2485 19.7985 27.5328 18.8912 29.6836C17.8299 32.1991 14.1702 32.1991 13.1089 29.6836C12.2016 27.5328 9.91813 26.2485 7.55131 26.5586C4.78324 26.9216 2.95305 23.8363 4.65971 21.6836C6.11926 19.8429 6.11926 17.2753 4.65971 15.4346C2.95283 13.2819 4.78317 10.1966 7.55131 10.5596C9.91808 10.8697 12.2015 9.58546 13.1089 7.4346ZM16.0005 13.1377C12.988 13.1377 10.5454 15.5655 10.5454 18.5596C10.5457 21.5535 12.9881 23.9805 16.0005 23.9805C19.0128 23.9804 21.4544 21.5534 21.4546 18.5596C21.4546 15.5656 19.013 13.1378 16.0005 13.1377Z" fill="#F1F1F1"/>
</svg>
