<svg width="32" height="39" viewBox="0 0 32 39" fill="none" xmlns="http://www.w3.org/2000/svg">
<path d="M0 0.851562H32V32.8516H0V0.851562Z" fill="#454545"/>
<path d="M13.109 7.43167C14.1702 4.916 17.83 4.916 18.8912 7.43167C19.7986 9.58249 22.0819 10.8659 24.4488 10.5557C27.2169 10.1927 29.0472 13.279 27.3404 15.4317C25.8808 17.2724 25.8808 19.84 27.3404 21.6807C29.0469 23.8333 27.2167 26.9186 24.4488 26.5557C22.0821 26.2455 19.7987 27.5292 18.8912 29.6797C17.83 32.1955 14.1702 32.1955 13.109 29.6797C12.2014 27.5292 9.91797 26.2456 7.55133 26.5557C4.78329 26.9186 2.95318 23.8333 4.65973 21.6807C6.11927 19.84 6.11924 17.2724 4.65973 15.4317C2.9528 13.279 4.78318 10.1927 7.55133 10.5557C9.9181 10.8659 12.2015 9.58249 13.109 7.43167ZM16.0006 13.1348C12.9881 13.1348 10.5457 15.5618 10.5455 18.5557C10.5455 21.5498 12.988 23.9776 16.0006 23.9776C19.013 23.9774 21.4547 21.5497 21.4547 18.5557C21.4544 15.5619 19.0129 13.1349 16.0006 13.1348Z" fill="#BDBDBD"/>
<path d="M18 36.8516C18 37.9561 17.1046 38.8516 16 38.8516C14.8954 38.8516 14 37.9561 14 36.8516C14 35.747 14.8954 34.8516 16 34.8516C17.1046 34.8516 18 35.747 18 36.8516Z" fill="#BDBDBD"/>
</svg>
