<svg width="260" height="150" viewBox="0 0 260 150" fill="none" xmlns="http://www.w3.org/2000/svg">
<path d="M190 0.999999C190 0.447714 190.448 0 191 0H224.785C236.524 0 245.327 3.14286 251.196 9.42858C257.065 15.7143 260 24.9286 260 37.0714V51.8571C260 64 257.065 73.2143 251.196 79.5C245.327 85.7857 236.524 88.9286 224.785 88.9286H214.62C214.067 88.9286 213.62 89.3763 213.62 89.9286V149C213.62 149.552 213.172 150 212.62 150H191C190.448 150 190 149.552 190 149V0.999999ZM224.785 67.5C228.65 67.5 231.513 66.4286 233.374 64.2857C235.378 62.1429 236.38 58.5 236.38 53.3571V35.5714C236.38 30.4286 235.378 26.7857 233.374 24.6429C231.513 22.5 228.65 21.4286 224.785 21.4286H214.62C214.067 21.4286 213.62 21.8763 213.62 22.4286V66.5C213.62 67.0523 214.067 67.5 214.62 67.5H224.785Z" fill="white"/>
<path d="M148 0.999999C148 0.447714 148.448 0 149 0H171C171.552 0 172 0.447715 172 1V149C172 149.552 171.552 150 171 150H149C148.448 150 148 149.552 148 149V0.999999Z" fill="white"/>
<path d="M74 0.999999C74 0.447714 74.4477 0 75 0H96.4364C96.9887 0 97.4364 0.447715 97.4364 1V127.571C97.4364 128.124 97.8841 128.571 98.4364 128.571H135C135.552 128.571 136 129.019 136 129.571V149C136 149.552 135.552 150 135 150H75C74.4477 150 74 149.552 74 149V0.999999Z" fill="white"/>
<path d="M0 0.999999C0 0.447714 0.447715 0 1 0H61C61.5523 0 62 0.447715 62 1V20.4286C62 20.9809 61.5523 21.4286 61 21.4286H24.4364C23.8841 21.4286 23.4364 21.8763 23.4364 22.4286V62.2143C23.4364 62.7666 23.8841 63.2143 24.4364 63.2143H52.6907C53.243 63.2143 53.6907 63.662 53.6907 64.2143V83.6429C53.6907 84.1951 53.243 84.6429 52.6907 84.6429H24.4364C23.8841 84.6429 23.4364 85.0906 23.4364 85.6429V149C23.4364 149.552 22.9887 150 22.4364 150H1C0.447716 150 0 149.552 0 149V0.999999Z" fill="white"/>
</svg>
