<svg width="56" height="45" viewBox="0 0 56 45" fill="none" xmlns="http://www.w3.org/2000/svg">
<path d="M3.70312 2.10385C3.70312 0.893461 4.76985 -0.0395212 5.96946 0.121665L25.5527 2.75297C26.5454 2.88635 27.2863 3.73352 27.2863 4.73515V35.8423C27.2863 36.9469 26.3909 37.8423 25.2863 37.8423H5.70313C4.59856 37.8423 3.70312 36.9469 3.70312 35.8423V2.10385Z" fill="white"/>
<path d="M52.4424 2.10385C52.4424 0.893461 51.3757 -0.0395212 50.176 0.121665L30.5928 2.75297C29.6001 2.88635 28.8592 3.73352 28.8592 4.73515V35.8423C28.8592 36.9469 29.7546 37.8423 30.8592 37.8423H50.4424C51.547 37.8423 52.4424 36.9469 52.4424 35.8423V2.10385Z" fill="white"/>
<path d="M54.7382 10.1152C55.1522 10.1153 55.488 10.4669 55.4882 10.9002V38.3144C55.4881 40.0484 54.1449 41.4543 52.488 41.4544H34.4693C33.2145 43.5655 30.979 44.9715 28.4287 44.9716C25.8782 44.9716 23.6422 43.5656 22.3873 41.4544H3.65741C2.0005 41.4544 0.657292 40.0485 0.657227 38.3144V10.9002C0.657412 10.4669 0.993148 10.1152 1.40727 10.1152C1.82133 10.1153 2.15713 10.4669 2.15732 10.9002V38.3144C2.15738 39.1814 2.82897 39.8844 3.65741 39.8844H21.6834H23.1974C24.1195 42.1175 26.1773 43.4835 28.428 43.4836C30.919 43.4836 33.0355 42.1664 33.8055 39.7111C33.9406 39.2803 33.7891 39.7625 33.7891 39.7625H35.1981L52.488 39.8844C53.3164 39.8843 53.988 39.1813 53.9881 38.3144V10.9002C53.9883 10.467 54.3242 10.1154 54.7382 10.1152Z" fill="white"/>
</svg>
