<svg width="50" height="31" viewBox="0 0 50 31" fill="none" xmlns="http://www.w3.org/2000/svg">
<path d="M0.175781 2.72656C0.175781 1.62199 1.07121 0.726562 2.17578 0.726562H35.8876C36.9921 0.726562 37.8876 1.62199 37.8876 2.72656V28.499C37.8876 29.6036 36.9921 30.499 35.8876 30.499H2.17578C1.07121 30.499 0.175781 29.6036 0.175781 28.499V2.72656Z" fill="white"/>
<path d="M31.9316 8.83642C31.9316 8.35436 32.2756 7.94091 32.7496 7.85314L48.613 4.91545C49.2278 4.80161 49.7951 5.27351 49.7951 5.89873V23.3427C49.7951 23.9679 49.2278 24.4398 48.613 24.326L32.7496 21.3883C32.2756 21.3005 31.9316 20.8871 31.9316 20.405V8.83642Z" fill="white"/>
</svg>
