<svg width="36" height="52" viewBox="0 0 36 52" fill="none" xmlns="http://www.w3.org/2000/svg">
<path d="M22.2354 37.2676C22.2354 36.7153 22.6831 36.2676 23.2354 36.2676H34.7637C35.7248 36.2676 36.1325 37.491 35.3637 38.0676L29.0471 42.8051C28.9436 42.8827 28.8561 42.9796 28.7896 43.0906L24.0928 50.9185C23.571 51.7882 22.2354 51.4182 22.2354 50.404V37.2676Z" fill="white"/>
<path d="M33.3259 0.774414C34.5511 0.774414 35.5442 1.7676 35.5442 2.99276V31.8312C35.5442 33.0563 34.5511 34.0495 33.3259 34.0495H22.2342C21.009 34.0495 20.0159 35.0427 20.0159 36.2679V47.3596C20.0159 48.5847 19.0227 49.5779 17.7975 49.5779H2.26912C1.04397 49.5779 0.0507813 48.5847 0.0507812 47.3596V2.99276C0.0507817 1.7676 1.04397 0.774414 2.26912 0.774414H33.3259ZM11.1425 20.7395C9.91734 20.7395 8.92415 21.7327 8.92415 22.9578C8.92415 24.183 9.91733 25.1762 11.1425 25.1762H24.4525C25.6777 25.1762 26.6709 24.183 26.6709 22.9578C26.6709 21.7327 25.6777 20.7395 24.4525 20.7395H11.1425ZM8.92415 14.0845C8.92415 15.3096 9.91733 16.3028 11.1425 16.3028H24.4525C25.6777 16.3028 26.6709 15.3096 26.6709 14.0845C26.6709 12.8593 25.6777 11.8661 24.4525 11.8661H11.1425C9.91734 11.8661 8.92415 12.8593 8.92415 14.0845Z" fill="white"/>
</svg>
