<svg width="45" height="38" viewBox="0 0 45 38" fill="none" xmlns="http://www.w3.org/2000/svg">
<path d="M39.5869 10.5587C39.5869 15.882 35.2425 20.1974 29.8833 20.1974C24.5241 20.1974 20.1797 15.882 20.1797 10.5587C20.1797 5.23533 24.5241 0.919922 29.8833 0.919922C35.2425 0.919922 39.5869 5.23533 39.5869 10.5587Z" fill="white"/>
<path d="M37.5869 10.5587C37.5869 6.35269 34.1508 2.92019 29.8838 2.91994C25.6166 2.91994 22.1797 6.35253 22.1797 10.5587C22.1797 14.7648 25.6165 18.1974 29.8838 18.1974V20.1974L29.3838 20.1847C24.4222 19.9348 20.4439 15.9833 20.1924 11.0548L20.1797 10.5587C20.1797 5.23533 24.5247 0.919922 29.8838 0.919922L30.3828 0.932617C35.5098 1.19085 39.5869 5.40174 39.5869 10.5587L39.5742 11.0548C39.3143 16.1475 35.0753 20.1972 29.8838 20.1974V18.1974C34.1508 18.1971 37.5869 14.7647 37.5869 10.5587Z" fill="white"/>
<path d="M13.7114 0.919922C15.7919 0.919922 17.7191 1.5706 19.2988 2.67789C19.789 3.02149 19.7835 3.72255 19.385 4.16925C17.8675 5.87006 16.946 8.10732 16.946 10.5587C16.946 13.0097 17.8679 15.2461 19.3852 16.9466C19.7837 17.3933 19.7892 18.0942 19.2991 18.4379C17.7194 19.5458 15.7923 20.1974 13.7114 20.1974C8.35227 20.1974 4.00781 15.882 4.00781 10.5587C4.00781 5.23533 8.35227 0.919922 13.7114 0.919922Z" fill="white"/>
<path d="M14.9463 10.5586C14.9463 8.0082 15.7741 5.64874 17.1719 3.73242C16.1329 3.21304 14.9589 2.92 13.7119 2.91992C9.44467 2.91992 6.00785 6.35249 6.00781 10.5586C6.00781 14.7647 9.44465 18.1973 13.7119 18.1973V20.1973L13.2119 20.1846C8.2503 19.9347 4.27202 15.9832 4.02051 11.0547L4.00781 10.5586C4.00785 5.2353 8.35278 0.919922 13.7119 0.919922L14.0996 0.927734C16.0314 1.00326 17.8178 1.63966 19.2988 2.67773C19.789 3.02133 19.7832 3.72225 19.3848 4.16895L19.1074 4.49414C17.7558 6.15033 16.9463 8.26045 16.9463 10.5586L16.957 11.0156C17.0639 13.287 17.9625 15.3521 19.3848 16.9463C19.7833 17.3929 19.7889 18.0938 19.2988 18.4375L18.999 18.6406C17.4782 19.625 15.6625 20.1972 13.7119 20.1973V18.1973C14.9594 18.1972 16.1334 17.9031 17.1729 17.3828C15.7753 15.4671 14.9463 13.109 14.9463 10.5586Z" fill="white"/>
<path d="M15.3281 29.8037C15.3281 25.3854 18.9098 21.8037 23.3281 21.8037H36.439C40.8573 21.8037 44.439 25.3854 44.439 29.8037V36.8683C44.439 37.4206 43.9913 37.8683 43.439 37.8683H16.3281C15.7758 37.8683 15.3281 37.4206 15.3281 36.8683V29.8037Z" fill="white"/>
<path d="M42.4395 29.8037C42.4395 26.4902 39.7529 23.804 36.4395 23.8037H23.3281C20.0144 23.8037 17.3281 26.49 17.3281 29.8037V35.8682H42.4395V29.8037ZM44.4395 36.8682L44.4336 36.9707C44.3857 37.4413 44.0117 37.8156 43.541 37.8633L43.4395 37.8682H16.3281L16.2256 37.8633C15.7551 37.8154 15.3809 37.4412 15.333 36.9707L15.3281 36.8682V29.8037C15.3281 25.3854 18.9098 21.8037 23.3281 21.8037H36.4395L36.8506 21.8145C41.0776 22.0287 44.4395 25.5235 44.4395 29.8037V36.8682Z" fill="white"/>
<path d="M16.9452 21.8037C17.7901 21.8037 18.6159 21.8847 19.4154 22.0388C20.3 22.2093 20.3492 23.394 19.593 23.8836C16.0518 26.1762 13.7106 30.1435 13.7106 34.6554V36.2618C13.7106 36.4765 13.7106 36.6813 13.7106 36.8684C13.7106 37.4207 13.2629 37.8683 12.7106 37.8683H2.38973C1.49654 37.8683 0.772461 37.149 0.772461 36.2618V34.6554C0.772461 27.5576 6.56507 21.8037 13.7106 21.8037H16.9452Z" fill="white"/>
<path d="M11.7109 34.6553C11.711 30.3672 13.5407 26.5102 16.4551 23.8037H13.7109C7.65732 23.8037 2.77251 28.6747 2.77246 34.6553V35.8682H11.7109V34.6553ZM13.7109 36.8682L13.7051 36.9707C13.6572 37.4414 13.2833 37.8157 12.8125 37.8633L12.7109 37.8682H2.38965L2.22461 37.8604C1.46325 37.7837 0.858452 37.182 0.78125 36.4258L0.772461 36.2617V34.6553C0.772512 27.6684 6.38564 21.9834 13.377 21.8076L13.7109 21.8037H16.9453L17.2607 21.8076C17.9958 21.8252 18.7154 21.9042 19.415 22.0391C20.2997 22.2096 20.349 23.3942 19.5928 23.8838L19.2646 24.1035C15.9079 26.4247 13.711 30.2845 13.7109 34.6553V36.8682Z" fill="white"/>
</svg>
