<svg width="51" height="51" viewBox="0 0 51 51" fill="none" xmlns="http://www.w3.org/2000/svg">
<path d="M38.6561 0.802734C39.7523 0.802734 40.641 1.69137 40.641 2.78757V22.6359H48.5803C49.6765 22.6359 50.5651 23.5245 50.5651 24.6207V48.4387C50.5651 49.5349 49.6765 50.4235 48.5803 50.4235H2.92917C1.83298 50.4235 0.944336 49.5349 0.944336 48.4387V24.6207C0.944336 23.5245 1.83298 22.6359 2.92917 22.6359H10.8685V2.78757C10.8685 1.69137 11.7571 0.802734 12.8533 0.802734H38.6561ZM22.7775 34.5449C21.6813 34.5449 20.7927 35.4335 20.7927 36.5297V46.4539C20.7927 47.5501 21.6813 48.4387 22.7775 48.4387H28.732C29.8282 48.4387 30.7168 47.5501 30.7168 46.4539V36.5297C30.7168 35.4335 29.8282 34.5449 28.732 34.5449H22.7775ZM8.88366 40.4994C8.33557 40.4994 7.89125 40.9437 7.89125 41.4918C7.89125 42.0399 8.33557 42.4842 8.88366 42.4842H10.6185C10.7566 42.4842 10.8685 42.3723 10.8685 42.2342V40.7494C10.8685 40.6113 10.7566 40.4994 10.6185 40.4994H8.88366ZM40.641 42.2342C40.641 42.3723 40.7529 42.4842 40.891 42.4842H42.6258C43.1739 42.4842 43.6182 42.0399 43.6182 41.4918C43.6182 40.9437 43.1739 40.4994 42.6258 40.4994H40.891C40.7529 40.4994 40.641 40.6113 40.641 40.7494V42.2342ZM8.88366 36.5297C8.33557 36.5297 7.89125 36.974 7.89125 37.5221C7.89125 38.0702 8.33557 38.5145 8.88366 38.5145H10.6185C10.7566 38.5145 10.8685 38.4026 10.8685 38.2645V36.7797C10.8685 36.6416 10.7566 36.5297 10.6185 36.5297H8.88366ZM40.641 38.2645C40.641 38.4026 40.7529 38.5145 40.891 38.5145H42.6258C43.1739 38.5145 43.6182 38.0702 43.6182 37.5221C43.6182 36.974 43.1739 36.5297 42.6258 36.5297H40.891C40.7529 36.5297 40.641 36.6416 40.641 36.7797V38.2645ZM8.88366 32.56C8.33557 32.56 7.89125 33.0044 7.89125 33.5525C7.89125 34.1006 8.33557 34.5449 8.88366 34.5449H10.6185C10.7566 34.5449 10.8685 34.4329 10.8685 34.2949V32.81C10.8685 32.672 10.7566 32.56 10.6185 32.56H8.88366ZM40.641 34.2949C40.641 34.4329 40.7529 34.5449 40.891 34.5449H42.6258C43.1739 34.5449 43.6182 34.1006 43.6182 33.5525C43.6182 33.0044 43.1739 32.56 42.6258 32.56H40.891C40.7529 32.56 40.641 32.672 40.641 32.81V34.2949ZM25.7547 10.7269C24.6585 10.7269 23.7699 11.6155 23.7699 12.7117V14.6966H21.7851C20.6889 14.6966 19.8002 15.5852 19.8002 16.6814C19.8002 17.7776 20.6889 18.6662 21.7851 18.6662H23.7699V20.6511C23.7699 21.7472 24.6585 22.6359 25.7547 22.6359C26.8509 22.6359 27.7396 21.7472 27.7396 20.6511V18.6662H29.7244C30.8206 18.6662 31.7092 17.7776 31.7092 16.6814C31.7092 15.5852 30.8206 14.6966 29.7244 14.6966H27.7396V12.7117C27.7396 11.6155 26.8509 10.7269 25.7547 10.7269Z" fill="white"/>
</svg>
