<svg width="47" height="54" viewBox="0 0 47 54" fill="none" xmlns="http://www.w3.org/2000/svg">
<path d="M43.8856 8.5248C44.2591 8.74056 44.4254 9.1897 44.2782 9.58667L43.0602 12.8682C41.7911 16.2882 41.4365 20.3154 39.2285 23.2181L38.1377 24.652C36.7494 26.4767 34.5215 27.3452 32.3312 27.0918L21.7145 48.3926C20.744 50.3333 18.3099 51.0377 16.3948 49.932C14.4802 48.8262 13.8742 46.3668 15.0695 44.5562L24.9927 22.8549C23.6788 21.0849 23.3179 18.7215 24.2038 16.6073L24.9002 14.9457C26.31 11.5821 29.6204 9.26142 31.9476 6.45234L34.1805 3.75674C34.4507 3.43078 34.9228 3.3502 35.2964 3.56582C35.7184 3.80947 35.8663 4.34222 35.6276 4.75637L31.8861 11.2368C31.5412 11.8343 31.7556 12.6041 32.3644 12.956C32.9381 13.2872 33.6666 13.1317 34.0381 12.5983L38.4281 6.29385C38.6864 5.92324 39.1915 5.81505 39.5903 6.04491C39.9893 6.27525 40.1492 6.76749 39.9573 7.17674L36.6925 14.1308C36.4163 14.7192 36.6458 15.4279 37.2195 15.7591C37.8286 16.1103 38.6012 15.9104 38.9461 15.3129L42.6876 8.83247C42.9269 8.41864 43.4636 8.28115 43.8856 8.5248Z" fill="white"/>
<path d="M39.5902 6.04486C39.9892 6.2752 40.1491 6.76763 39.9572 7.17687L36.6925 14.1304C36.4336 14.6819 36.6187 15.3398 37.1154 15.6928L37.219 15.7594C37.7899 16.0885 38.5047 15.9331 38.8761 15.4204L38.946 15.3131L42.6877 8.83226C42.927 8.41859 43.4638 8.28123 43.8857 8.52484C44.259 8.74064 44.4254 9.19017 44.2783 9.58707L43.0606 12.868C41.7915 16.288 41.4364 20.3158 39.2284 23.2185L38.1378 24.6524L37.8681 24.9827C36.4715 26.5808 34.385 27.3291 32.3316 27.0918L21.7147 48.393C20.7441 50.3335 18.3094 51.0378 16.3944 49.9322L17.1444 48.6332C18.3363 49.3213 19.7996 48.8641 20.3714 47.7234L31.4583 25.4813L32.5029 25.6018C34.1947 25.7975 35.8931 25.1248 36.9441 23.7433L38.0342 22.3103L38.2053 22.0764C39.039 20.8937 39.5781 19.4597 40.0561 17.818C40.2978 16.988 40.5345 16.0582 40.7929 15.1142L40.245 16.0631C39.4732 17.3997 37.7739 17.8107 36.4699 17.0589C35.3194 16.3946 34.7852 14.9984 35.2317 13.7426L35.335 13.4933L35.5258 13.0847L35.269 13.4552C34.4903 14.5733 33.0382 14.9209 31.8484 14.376L31.6137 14.2552C30.3122 13.503 29.8141 11.8256 30.5868 10.4869L31.1308 9.54476C30.4443 10.2385 29.7595 10.9063 29.1632 11.5289C27.9015 12.8462 26.879 14.1058 26.2837 15.5261L25.5877 17.1867L25.4728 17.4891C24.9875 18.9102 25.2102 20.4575 26.0155 21.6996L26.1971 21.9612L26.7258 22.6724L16.4337 45.1805L16.3854 45.2856L16.3214 45.3829C15.618 46.4487 15.9529 47.9447 17.1444 48.6332L16.3944 49.9322L16.2189 49.8241C14.4441 48.6727 13.9112 46.31 15.069 44.556L24.9924 22.8544C23.7608 21.195 23.3668 19.0143 24.0523 17.0062L24.2036 16.6075L24.9001 14.946C26.2217 11.7928 29.2135 9.55552 31.4999 6.97375L31.9477 6.45198L34.1803 3.757C34.4505 3.43104 34.9229 3.35024 35.2965 3.56586C35.7183 3.80951 35.8661 4.34202 35.6276 4.75609L31.8859 11.2369C31.5626 11.797 31.7308 12.5086 32.2546 12.8853L32.3637 12.9562C32.9015 13.2666 33.5759 13.1492 33.9641 12.6939L34.0386 12.5982L38.4281 6.29406C38.6865 5.92345 39.1914 5.815 39.5902 6.04486Z" fill="white"/>
<path d="M8.02169 4.97813C10.7693 3.39181 15.6615 3.38261 17.4306 5.9947L20.1384 9.99181L22.8461 13.9889C24.518 16.4579 24.3026 19.6198 22.5862 21.8433L32.4997 43.5141C33.6937 45.3258 33.1069 47.7742 31.2172 48.8652C29.3276 49.9561 26.9137 49.2401 25.9417 47.3004L15.3438 26.0248C12.5605 26.3986 9.71498 25.0037 8.41304 22.3219L6.30531 17.9784L4.19758 13.6348C2.82002 10.7967 5.27421 6.56447 8.02169 4.97813Z" fill="white"/>
<path d="M8.28515 4.83391C11.0717 3.39345 15.7168 3.46421 17.4307 5.99479L22.8466 13.9887C24.5184 16.4575 24.3027 19.6193 22.5865 21.8429L32.5003 43.514C33.694 45.3255 33.1073 47.7742 31.2179 48.8652L30.4679 47.5662C31.6171 46.9025 31.9611 45.4235 31.2473 44.34L31.1838 44.2436L31.1363 44.1379L20.8455 21.6437L21.3987 20.9262C22.6958 19.2459 22.8855 16.8908 21.7214 15.0104L21.6047 14.8298L16.1888 6.83586C15.6698 6.06956 14.5485 5.51827 12.9875 5.40832C11.5515 5.30725 10.0522 5.61124 8.98054 6.16335L8.77209 6.27693C7.69211 6.90049 6.5838 8.11317 5.9113 9.49377C5.26899 10.8124 5.15618 11.9902 5.47732 12.8183L5.54697 12.9799L9.76277 21.6667C10.7691 23.7395 12.9731 24.83 15.1442 24.5384L16.2084 24.3953L27.2849 46.6311C27.8672 47.789 29.3193 48.2293 30.4679 47.5662L31.2179 48.8652L31.0391 48.9617C29.2387 49.8793 27.0317 49.2248 26.0376 47.4786L25.9416 47.3006L15.3437 26.0245C12.6474 26.3866 9.89248 25.0889 8.53939 22.5692L8.41341 22.3217L4.1976 13.6349C2.82003 10.7968 5.27462 6.56424 8.02209 4.97789L8.28515 4.83391Z" fill="white"/>
</svg>
