<svg width="58" height="25" viewBox="0 0 58 25" fill="none" xmlns="http://www.w3.org/2000/svg">
<path d="M5.63672 1.48535C5.63672 0.933067 6.08443 0.485352 6.63672 0.485352H17.6342C18.1864 0.485352 18.6342 0.933067 18.6342 1.48535V23.6235C18.6342 24.1757 18.1865 24.6235 17.6342 24.6235H6.63672C6.08444 24.6235 5.63672 24.1757 5.63672 23.6235V1.48535Z" fill="white"/>
<path d="M0.0664062 5.19922C0.0664062 4.64693 0.514122 4.19922 1.06641 4.19922H8.35029C8.90258 4.19922 9.3503 4.64693 9.3503 5.19922V19.9102C9.3503 20.4625 8.90258 20.9102 8.3503 20.9102H1.06641C0.514123 20.9102 0.0664062 20.4625 0.0664062 19.9102V5.19922Z" fill="white"/>
<path d="M52.0596 1.48535C52.0596 0.933067 51.6119 0.485352 51.0596 0.485352H40.0621C39.5098 0.485352 39.0621 0.933067 39.0621 1.48535V23.6235C39.0621 24.1757 39.5098 24.6235 40.0621 24.6235H51.0596C51.6119 24.6235 52.0596 24.1757 52.0596 23.6235V1.48535Z" fill="white"/>
<path d="M57.6299 5.19922C57.6299 4.64693 57.1822 4.19922 56.6299 4.19922H49.346C48.7937 4.19922 48.346 4.64693 48.346 5.19922V19.9102C48.346 20.4625 48.7937 20.9102 49.346 20.9102H56.6299C57.1822 20.9102 57.6299 20.4625 57.6299 19.9102V5.19922Z" fill="white"/>
<path d="M16.4062 8.53223H42.1536V16.5783H16.4062V8.53223Z" fill="white"/>
<path d="M42.1533 8.53223V16.5781H16.4062V8.53223H42.1533ZM18.4062 14.5781H40.1533V10.5322H18.4062V14.5781Z" fill="white"/>
</svg>
