<svg width="42" height="42" viewBox="0 0 42 42" fill="none" xmlns="http://www.w3.org/2000/svg">
<circle cx="19.6529" cy="29.1011" r="1.54548" fill="white"/>
<circle cx="26.8638" cy="29.1011" r="1.54548" fill="white"/>
<path d="M28.6699 11.9233C31.3 11.9233 33.2148 14.4181 32.5342 16.9585L31.5186 20.7466C31.05 22.4953 29.4657 23.7114 27.6553 23.7114H17.1406C16.7673 24.5436 17.3593 25.5744 18.3584 25.5747H29.957C30.5092 25.5747 30.9568 26.0226 30.957 26.5747C30.957 27.127 30.5093 27.5747 29.957 27.5747H18.3584C15.6916 27.5744 14.184 24.6452 15.5195 22.5063L13.2197 13.9233H9.69434C9.14225 13.9231 8.69434 13.4755 8.69434 12.9233C8.69441 12.3713 9.14229 11.9236 9.69434 11.9233H28.6699Z" fill="white"/>
</svg>
