<svg width="42" height="42" viewBox="0 0 42 42" fill="none" xmlns="http://www.w3.org/2000/svg">
<path d="M23.9614 14.4822C25.5961 14.4822 26.9104 15.7966 26.9106 17.4041C26.9106 19.0117 25.5963 20.3269 23.9614 20.3269C22.3268 20.3266 21.0132 19.0115 21.0132 17.4041C21.0134 15.7968 22.3269 14.4824 23.9614 14.4822Z" fill="white" stroke="white" stroke-width="2"/>
<path d="M17.3809 14.4822C17.7753 14.4822 18.1497 14.5593 18.4912 14.697C18.4794 14.7337 18.464 14.7718 18.4424 14.8064C17.9705 15.5605 17.6973 16.4521 17.6973 17.4041C17.6973 18.3561 17.9705 19.2477 18.4424 20.0017C18.4639 20.0362 18.4793 20.0745 18.4912 20.1111C18.1496 20.2491 17.7754 20.3269 17.3809 20.3269C15.7462 20.3266 14.4326 19.0115 14.4326 17.4041C14.4329 15.7968 15.7464 14.4824 17.3809 14.4822Z" fill="white" stroke="white" stroke-width="2"/>
<mask id="path-3-inside-1_945_1576" fill="white">
<path d="M18.0381 27.7916C18.0381 24.5823 20.6397 21.9807 23.8489 21.9807H24.0734C27.2826 21.9807 29.8842 24.5823 29.8842 27.7916V27.7916C29.8842 28.1927 29.559 28.5179 29.1579 28.5179H18.7644C18.3633 28.5179 18.0381 28.1927 18.0381 27.7916V27.7916Z"/>
</mask>
<path d="M18.0381 27.7916C18.0381 24.5823 20.6397 21.9807 23.8489 21.9807H24.0734C27.2826 21.9807 29.8842 24.5823 29.8842 27.7916V27.7916C29.8842 28.1927 29.559 28.5179 29.1579 28.5179H18.7644C18.3633 28.5179 18.0381 28.1927 18.0381 27.7916V27.7916Z" fill="white" stroke="white" stroke-width="4" mask="url(#path-3-inside-1_945_1576)"/>
<path d="M17.3809 22.9805H18.0479C17.0153 24.0896 16.3809 25.5761 16.3809 27.21V27.5176H13.1162V27.21C13.1164 24.8805 15.0193 22.9806 17.3809 22.9805Z" fill="white" stroke="white" stroke-width="2"/>
</svg>
