<svg width="42" height="42" viewBox="0 0 42 42" fill="none" xmlns="http://www.w3.org/2000/svg">
<path d="M26.7277 20.0771H28.6927C29.7973 20.0771 30.6927 20.9726 30.6927 22.0771V25.0002C30.6927 26.1048 29.7973 27.0002 28.6927 27.0002H26.2871" stroke="white" stroke-width="2" stroke-linecap="round" stroke-linejoin="round"/>
<path d="M11.3076 19.3847C11.3076 18.4925 12.0308 17.7693 12.923 17.7693H26.4335C27.3256 17.7693 28.0489 18.4925 28.0489 19.3847V22.3217C28.0489 26.9447 24.3012 30.6924 19.6782 30.6924V30.6924C15.0553 30.6924 11.3076 26.9447 11.3076 22.3217V19.3847Z" fill="white"/>
<path d="M19.2871 11.8855C18.469 13.3363 20.0109 16.0811 19.9613 15.5475C19.9117 15.0139 19.3516 13.731 20.2311 12.1784C21.1015 10.6419 20.7337 9.26204 20.2832 8.50607C20.1743 8.32339 19.9589 8.40142 19.9663 8.61396C19.9921 9.36359 20.0102 10.603 19.2871 11.8855Z" fill="white"/>
<path d="M22.6589 12.876C22.0776 13.925 23.1416 15.9579 23.1086 15.5659C23.0755 15.174 22.7019 14.2316 23.2885 13.0911C23.8359 12.0267 23.7599 11.1584 23.4534 10.56C23.3525 10.3629 23.1187 10.4513 23.1243 10.6727C23.1394 11.2641 23.1095 12.0628 22.6589 12.876Z" fill="white"/>
<path d="M16.2918 12.875C15.8037 13.9706 16.7745 15.9569 16.7415 15.565C16.7084 15.173 16.3348 14.2306 16.9213 13.0902C17.4688 12.0257 17.3929 11.1574 17.0864 10.5591C16.9854 10.3619 16.7535 10.4502 16.7585 10.6717C16.7702 11.1936 16.7289 11.8939 16.2918 12.875Z" fill="white"/>
<path d="M15.6152 32.4152C15.6152 32.0583 15.9045 31.769 16.2614 31.769H24.1229C24.4798 31.769 24.7691 32.0583 24.7691 32.4152V32.4152C24.7691 32.9505 24.3351 33.3844 23.7998 33.3844H16.5845C16.0492 33.3844 15.6152 32.9505 15.6152 32.4152V32.4152Z" fill="white"/>
</svg>
