<svg width="42" height="42" viewBox="0 0 42 42" fill="none" xmlns="http://www.w3.org/2000/svg">
<path d="M28.2001 26.7892V20.6203L19.0055 19.124L18.9251 19.1067C18.5297 19.0005 18.2711 18.6092 18.3382 18.1965C18.4056 17.784 18.7746 17.496 19.183 17.5205L19.2658 17.5292L28.4596 19.0262L28.604 19.0562C29.311 19.2382 29.8155 19.8779 29.8155 20.6203V26.7892C29.8155 27.2353 29.4539 27.5969 29.0078 27.5969C28.5618 27.5969 28.2002 27.2353 28.2001 26.7892Z" fill="white"/>
<path d="M20.454 13.989C20.6442 13.9141 20.8558 13.9141 21.046 13.989L30.1499 17.5751C30.8321 17.8438 30.8321 18.8093 30.1499 19.0781L21.046 22.6642C20.8558 22.7391 20.6442 22.7391 20.454 22.6642L11.3501 19.0781C10.6679 18.8093 10.6679 17.8438 11.3501 17.5751L20.454 13.989Z" fill="white"/>
<path d="M20.4564 23.4962C20.6465 23.5711 20.8578 23.5711 21.0479 23.4962L26.11 21.5023C26.6399 21.2936 27.2137 21.6842 27.2137 22.2538V28.0434C27.2137 28.4895 26.8521 28.8511 26.406 28.8511L23.6413 28.4666C21.6219 28.1857 19.5741 28.1746 17.5518 28.4335L14.2906 28.8511C13.8445 28.8511 13.4829 28.4895 13.4829 28.0434V21.9359C13.4829 21.3663 14.0566 20.9757 14.5866 21.1844L20.4564 23.4962Z" fill="white"/>
</svg>
