<svg width="42" height="42" viewBox="0 0 42 42" fill="none" xmlns="http://www.w3.org/2000/svg">
<circle cx="25.9708" cy="27.3008" r="2.10651" stroke="white" stroke-width="2"/>
<circle cx="16.0284" cy="27.3008" r="2.10651" stroke="white" stroke-width="2"/>
<path d="M18.4161 24.1091C18.6735 24.5825 19.0414 24.9587 19.4405 25.2312C20.0316 25.6347 20.4497 26.0301 20.7364 26.364C20.8208 26.4623 20.912 26.5509 21.0069 26.6316C20.4831 27.0764 19.8234 27.2638 19.2804 27.2898C18.6603 27.3193 17.6661 27.1515 17.0753 26.2654C16.5505 25.478 16.5844 24.4434 17.1583 23.6912L17.7628 22.8992C17.9709 23.2872 18.1885 23.6904 18.4161 24.1091Z" fill="white"/>
<path d="M26.4123 12.1837C26.5852 12.0729 27.1568 11.7453 27.8644 11.9913C28.73 12.2926 28.9098 13.0923 28.9328 13.4171C28.9572 13.7654 28.8754 14.0718 28.8068 14.2716C28.3927 15.4782 27.2736 17.9487 24.8029 22.5626L25.298 23.1964C25.8512 23.9047 25.9265 24.876 25.4894 25.6613C24.935 26.6568 23.8586 26.87 23.2355 26.8751C22.5777 26.8805 21.6866 26.6773 21.0705 26.0167C20.7729 25.6976 20.3608 25.3347 19.8039 24.9669C19.4677 24.7449 19.1713 24.4348 18.965 24.0558C15.9334 18.4852 14.6202 15.6171 14.1603 14.2824C14.0918 14.0834 14.0096 13.7797 14.0314 13.4347C14.0513 13.1229 14.2211 12.2995 15.1076 11.9962C15.8286 11.7499 16.4038 12.0962 16.5685 12.2052C16.7485 12.3244 16.8969 12.4658 17.0158 12.6007L17.1252 12.7326L21.423 18.2345L25.8478 12.7052C25.9829 12.5365 26.1693 12.3397 26.4123 12.1837ZM21.3098 21.3986C20.7952 21.3986 20.3782 21.8156 20.3781 22.3302C20.3781 22.8449 20.7951 23.2628 21.3098 23.2628C21.8245 23.2628 22.2414 22.8449 22.2414 22.3302C22.2413 21.8156 21.8244 21.3986 21.3098 21.3986Z" fill="white"/>
</svg>
