<svg width="42" height="42" viewBox="0 0 42 42" fill="none" xmlns="http://www.w3.org/2000/svg">
<path d="M22.7588 25.6108C22.7588 25.0586 23.2065 24.6108 23.7588 24.6108H26.0778C27.0388 24.6108 27.4466 25.8342 26.6778 26.4108L25.6236 27.2015C25.5202 27.2791 25.4327 27.376 25.3662 27.487L24.6163 28.7367C24.0945 29.6064 22.7588 29.2365 22.7588 28.2222V25.6108Z" fill="white"/>
<path d="M27.2722 10.1675C27.7707 10.1675 28.1749 10.5716 28.1749 11.0702V22.8055C28.1749 23.304 27.7707 23.7082 27.2722 23.7082H22.7586C22.26 23.7082 21.8559 24.1124 21.8559 24.6109V29.1245C21.8559 29.6231 21.4517 30.0272 20.9532 30.0272H14.6342C14.1356 30.0272 13.7314 29.6231 13.7314 29.1245V11.0702C13.7314 10.5716 14.1356 10.1675 14.6342 10.1675H27.2722ZM18.245 18.2919C17.7465 18.2919 17.3423 18.6961 17.3423 19.1946V19.1946C17.3423 19.6932 17.7465 20.0973 18.245 20.0973H23.6613C24.1599 20.0973 24.564 19.6932 24.564 19.1946V19.1946C24.564 18.6961 24.1599 18.2919 23.6613 18.2919H18.245ZM17.3423 15.5838C17.3423 16.0823 17.7465 16.4865 18.245 16.4865H23.6613C24.1599 16.4865 24.564 16.0823 24.564 15.5838V15.5838C24.564 15.0852 24.1599 14.6811 23.6613 14.6811H18.245C17.7465 14.6811 17.3423 15.0852 17.3423 15.5838V15.5838Z" fill="white"/>
</svg>
