<svg width="42" height="42" viewBox="0 0 42 42" fill="none" xmlns="http://www.w3.org/2000/svg">
<path d="M25.0078 15.1587C25.5601 15.1587 26.0078 15.6064 26.0078 16.1587V30.1187C26.0078 30.6709 25.5601 31.1187 25.0078 31.1187H14.7314C14.1792 31.1187 13.7314 30.6709 13.7314 30.1187V16.1587C13.7314 15.6064 14.1792 15.1587 14.7314 15.1587H25.0078ZM16.1855 19.4556C15.677 19.4556 15.2646 19.8679 15.2646 20.3765V25.9009C15.2646 26.4094 15.677 26.8218 16.1855 26.8218C16.6941 26.8218 17.1064 26.4094 17.1064 25.9009V20.3765C17.1064 19.8679 16.6941 19.4556 16.1855 19.4556ZM19.8691 19.4556C19.3607 19.4556 18.9482 19.868 18.9482 20.3765V25.9009C18.9483 26.4093 19.3607 26.8217 19.8691 26.8218C20.3776 26.8218 20.79 26.4094 20.79 25.9009V20.3765C20.79 19.8679 20.3777 19.4556 19.8691 19.4556ZM23.5518 19.4556C23.0432 19.4556 22.6309 19.8679 22.6309 20.3765V25.9009C22.6309 26.4094 23.0433 26.8218 23.5518 26.8218C24.0602 26.8217 24.4726 26.4094 24.4727 25.9009V20.3765C24.4727 19.868 24.0603 19.4556 23.5518 19.4556Z" fill="white"/>
<path d="M25.5882 18.8416H26.0774C27.7343 18.8416 29.0774 20.1847 29.0774 21.8416V24.7423C29.0774 26.3992 27.7343 27.7423 26.0774 27.7423H25.4209" stroke="white" stroke-width="3" stroke-linecap="round"/>
<mask id="path-3-inside-1_945_1590" fill="white">
<path d="M21.8784 11.3076C23.8199 11.3077 25.3939 12.8818 25.394 14.8232C25.394 16.7649 23.82 18.3388 21.8784 18.3389C21.6147 18.3389 21.358 18.309 21.1108 18.2539C20.3922 18.9288 19.4265 19.3436 18.3628 19.3438C16.1438 19.3438 14.3444 17.5451 14.3442 15.3262C14.3442 13.1071 16.1438 11.3076 18.3628 11.3076C19.0177 11.3077 19.6359 11.4652 20.1821 11.7432C20.685 11.4656 21.2634 11.3076 21.8784 11.3076Z"/>
</mask>
<path d="M21.8784 11.3076C23.8199 11.3077 25.3939 12.8818 25.394 14.8232C25.394 16.7649 23.82 18.3388 21.8784 18.3389C21.6147 18.3389 21.358 18.309 21.1108 18.2539C20.3922 18.9288 19.4265 19.3436 18.3628 19.3438C16.1438 19.3438 14.3444 17.5451 14.3442 15.3262C14.3442 13.1071 16.1438 11.3076 18.3628 11.3076C19.0177 11.3077 19.6359 11.4652 20.1821 11.7432C20.685 11.4656 21.2634 11.3076 21.8784 11.3076Z" fill="white"/>
<path d="M21.8784 11.3076L21.8785 9.30762H21.8784V11.3076ZM25.394 14.8232L27.394 14.8232L27.394 14.8231L25.394 14.8232ZM21.8784 18.3389L21.8784 20.3389L21.8785 20.3389L21.8784 18.3389ZM21.1108 18.2539L21.5457 16.3018L20.513 16.0717L19.7417 16.796L21.1108 18.2539ZM18.3628 19.3438L18.3628 21.3438L18.363 21.3437L18.3628 19.3438ZM14.3442 15.3262L12.3442 15.3262L12.3442 15.3263L14.3442 15.3262ZM18.3628 11.3076L18.363 9.30762H18.3628V11.3076ZM20.1821 11.7432L19.275 13.5256L20.22 14.0066L21.1484 13.4943L20.1821 11.7432ZM21.8784 11.3076L21.8784 13.3076C22.7152 13.3076 23.394 13.9862 23.394 14.8234L25.394 14.8232L27.394 14.8231C27.3938 11.7773 24.9246 9.30769 21.8785 9.30762L21.8784 11.3076ZM25.394 14.8232H23.394C23.394 15.6602 22.7155 16.3388 21.8784 16.3389L21.8784 18.3389L21.8785 20.3389C24.9246 20.3388 27.394 17.8695 27.394 14.8232H25.394ZM21.8784 18.3389V16.3389C21.7665 16.3389 21.6556 16.3262 21.5457 16.3018L21.1108 18.2539L20.676 20.2061C21.0604 20.2917 21.4629 20.3389 21.8784 20.3389V18.3389ZM21.1108 18.2539L19.7417 16.796C19.3771 17.1384 18.8952 17.3437 18.3626 17.3438L18.3628 19.3438L18.363 21.3437C19.9577 21.3436 21.4072 20.7193 22.48 19.7118L21.1108 18.2539ZM18.3628 19.3438V17.3438C17.2479 17.3438 16.3443 16.44 16.3442 15.3261L14.3442 15.3262L12.3442 15.3263C12.3444 18.6502 15.0398 21.3438 18.3628 21.3438V19.3438ZM14.3442 15.3262H16.3442C16.3442 14.2117 17.2483 13.3076 18.3628 13.3076V11.3076V9.30762C15.0392 9.30762 12.3442 12.0026 12.3442 15.3262H14.3442ZM18.3628 11.3076L18.3626 13.3076C18.6935 13.3077 19.0018 13.3866 19.275 13.5256L20.1821 11.7432L21.0893 9.96073C20.27 9.54375 19.3419 9.30773 18.363 9.30762L18.3628 11.3076ZM20.1821 11.7432L21.1484 13.4943C21.3631 13.3758 21.6099 13.3076 21.8784 13.3076V11.3076V9.30762C20.9168 9.30762 20.007 9.55549 19.2159 9.99208L20.1821 11.7432Z" fill="white" mask="url(#path-3-inside-1_945_1590)"/>
</svg>
