<svg width="42" height="42" viewBox="0 0 42 42" fill="none" xmlns="http://www.w3.org/2000/svg">
<path d="M26.6547 10.5C27.1008 10.5 27.4624 10.8616 27.4624 11.3077V19.3846H30.6932C31.1393 19.3846 31.5009 19.7462 31.5009 20.1923V29.8846C31.5009 30.3307 31.1393 30.6923 30.6932 30.6923H12.1163C11.6702 30.6923 11.3086 30.3307 11.3086 29.8846V20.1923C11.3086 19.7462 11.6702 19.3846 12.1163 19.3846H15.3471V11.3077C15.3471 10.8616 15.7087 10.5 16.1547 10.5H26.6547ZM20.1932 24.2308C19.7471 24.2308 19.3855 24.5924 19.3855 25.0385V29.0769C19.3855 29.523 19.7471 29.8846 20.1932 29.8846H22.6163C23.0624 29.8846 23.424 29.523 23.424 29.0769V25.0385C23.424 24.5924 23.0624 24.2308 22.6163 24.2308H20.1932ZM14.5394 26.6538C14.3163 26.6538 14.1355 26.8347 14.1355 27.0577C14.1355 27.2807 14.3163 27.4615 14.5394 27.4615H15.0971C15.2351 27.4615 15.3471 27.3496 15.3471 27.2115V26.9038C15.3471 26.7658 15.2351 26.6538 15.0971 26.6538H14.5394ZM27.4624 27.2115C27.4624 27.3496 27.5744 27.4615 27.7124 27.4615H28.2701C28.4932 27.4615 28.674 27.2807 28.674 27.0577C28.674 26.8347 28.4932 26.6538 28.2701 26.6538H27.7124C27.5744 26.6538 27.4624 26.7658 27.4624 26.9038V27.2115ZM14.5394 25.0385C14.3163 25.0385 14.1355 25.2193 14.1355 25.4423C14.1355 25.6653 14.3163 25.8462 14.5394 25.8462H15.0971C15.2351 25.8462 15.3471 25.7342 15.3471 25.5962V25.2885C15.3471 25.1504 15.2351 25.0385 15.0971 25.0385H14.5394ZM27.4624 25.5962C27.4624 25.7342 27.5744 25.8462 27.7124 25.8462H28.2701C28.4932 25.8462 28.674 25.6653 28.674 25.4423C28.674 25.2193 28.4932 25.0385 28.2701 25.0385H27.7124C27.5744 25.0385 27.4624 25.1504 27.4624 25.2885V25.5962ZM14.5394 23.4231C14.3163 23.4231 14.1355 23.6039 14.1355 23.8269C14.1355 24.05 14.3163 24.2308 14.5394 24.2308H15.0971C15.2351 24.2308 15.3471 24.1188 15.3471 23.9808V23.6731C15.3471 23.535 15.2351 23.4231 15.0971 23.4231H14.5394ZM27.4624 23.9808C27.4624 24.1188 27.5744 24.2308 27.7124 24.2308H28.2701C28.4932 24.2308 28.674 24.05 28.674 23.8269C28.674 23.6039 28.4932 23.4231 28.2701 23.4231H27.7124C27.5744 23.4231 27.4624 23.535 27.4624 23.6731V23.9808ZM21.4047 14.5385C20.9587 14.5385 20.5971 14.9001 20.5971 15.3462V16.1538H19.7894C19.3433 16.1538 18.9817 16.5155 18.9817 16.9615C18.9817 17.4076 19.3433 17.7692 19.7894 17.7692H20.5971V18.5769C20.5971 19.023 20.9587 19.3846 21.4047 19.3846C21.8508 19.3846 22.2124 19.023 22.2124 18.5769V17.7692H23.0201C23.4662 17.7692 23.8278 17.4076 23.8278 16.9615C23.8278 16.5155 23.4662 16.1538 23.0201 16.1538H22.2124V15.3462C22.2124 14.9001 21.8508 14.5385 21.4047 14.5385Z" fill="white"/>
</svg>
