<svg width="42" height="42" viewBox="0 0 42 42" fill="none" xmlns="http://www.w3.org/2000/svg">
<path d="M27.1522 17.3846C26.9459 18.093 26.716 18.6902 26.3526 19.168L25.909 19.7509C25.5127 20.2717 24.8712 20.5275 24.2292 20.4533L23.706 20.3926L23.4713 20.8637L19.1511 29.532C18.9555 29.9213 18.4509 30.0837 18.0334 29.8429C17.6156 29.6016 17.5042 29.0822 17.7448 28.7178L17.7761 28.6694L17.8007 28.617L21.8384 19.7857L22.0227 19.3824L21.7588 19.0271L21.69 18.9276C21.3628 18.4229 21.2901 17.787 21.5272 17.2211L21.8102 16.5455C22.0422 15.9918 22.4445 15.4941 22.9549 14.9612C23.023 14.8902 23.0957 14.8183 23.1696 14.7436C23.061 15.2679 23.3026 15.819 23.7806 16.0954L23.7815 16.0959C24.2064 16.341 24.7287 16.3165 25.1225 16.0526C25.0932 16.4871 25.294 16.9144 25.656 17.1714L25.7571 17.2365C26.2366 17.513 26.8333 17.4439 27.2326 17.0871C27.2047 17.1893 27.1799 17.2894 27.1522 17.3846Z" fill="white" stroke="white" stroke-width="1.5"/>
<path d="M14.6258 12.8485C15.0378 12.6107 15.6619 12.471 16.2612 12.5132C16.8751 12.5564 17.2807 12.7718 17.458 13.0333L18.5606 14.6599L19.6623 16.287C20.1524 17.0112 20.093 17.9433 19.5835 18.6035L19.3071 18.9627L19.495 19.3741L23.5297 28.1925L23.5534 28.2453L23.5848 28.2937C23.8307 28.6669 23.7128 29.1783 23.3139 29.4086C22.9156 29.6383 22.4148 29.4855 22.214 29.0874L17.901 20.4297L17.6617 19.9488L17.13 20.02C16.3037 20.131 15.4665 19.7165 15.0844 18.93L14.2271 17.1619L13.3689 15.3942C13.231 15.1099 13.2473 14.651 13.5168 14.0977C13.7471 13.6249 14.1077 13.2053 14.4703 12.9484L14.6258 12.8485Z" fill="white" stroke="white" stroke-width="1.5"/>
</svg>
