<svg width="22" height="34" viewBox="0 0 22 34" fill="none" xmlns="http://www.w3.org/2000/svg">
<path d="M0 4C0 3.44772 0.447715 3 1 3H21C21.5523 3 22 3.44772 22 4V22C22 22.5523 21.5523 23 21 23H1C0.447716 23 0 22.5523 0 22V4Z" fill="#3A3A3A"/>
<path d="M4 1.5C4 0.671573 4.67157 0 5.5 0C6.32843 0 7 0.671573 7 1.5V5.5C7 6.32843 6.32843 7 5.5 7C4.67157 7 4 6.32843 4 5.5V1.5Z" fill="#3A3A3A"/>
<path d="M15 1.5C15 0.671573 15.6716 0 16.5 0C17.3284 0 18 0.671573 18 1.5V5.5C18 6.32843 17.3284 7 16.5 7C15.6716 7 15 6.32843 15 5.5V1.5Z" fill="#3A3A3A"/>
<path d="M4 9.75C4 9.33579 4.33579 9 4.75 9H17.25C17.6642 9 18 9.33579 18 9.75C18 10.1642 17.6642 10.5 17.25 10.5H4.75C4.33579 10.5 4 10.1642 4 9.75Z" fill="white"/>
<path d="M4 13.75C4 13.3358 4.33579 13 4.75 13H17.25C17.6642 13 18 13.3358 18 13.75C18 14.1642 17.6642 14.5 17.25 14.5H4.75C4.33579 14.5 4 14.1642 4 13.75Z" fill="white"/>
<path d="M4 17.75C4 17.3358 4.33579 17 4.75 17H17.25C17.6642 17 18 17.3358 18 17.75C18 18.1642 17.6642 18.5 17.25 18.5H4.75C4.33579 18.5 4 18.1642 4 17.75Z" fill="white"/>
<path d="M13 31.5C13 32.6046 12.1046 33.5 11 33.5C9.89543 33.5 9 32.6046 9 31.5C9 30.3954 9.89543 29.5 11 29.5C12.1046 29.5 13 30.3954 13 31.5Z" fill="#3A3A3A"/>
</svg>
