<svg width="25" height="24" viewBox="0 0 25 24" fill="none" xmlns="http://www.w3.org/2000/svg">
<path d="M24.8198 12C24.8198 18.6274 19.4472 24 12.8198 24C6.19241 24 0.819824 18.6274 0.819824 12C0.819824 5.37258 6.19241 0 12.8198 0C19.4472 0 24.8198 5.37258 24.8198 12Z" fill="#D9D9D9"/>
<path d="M8.57707 7.75691C8.9676 7.36639 9.60076 7.36639 9.99129 7.75691L17.0624 14.828C17.4529 15.2185 17.4529 15.8517 17.0624 16.2422C16.6718 16.6327 16.0387 16.6327 15.6481 16.2422L8.57707 9.17112C8.18655 8.7806 8.18655 8.14744 8.57707 7.75691Z" fill="#F9F9F9"/>
<path d="M17.0624 7.75676C17.4529 8.14728 17.4529 8.78045 17.0624 9.17097L9.99136 16.242C9.60083 16.6326 8.96767 16.6326 8.57714 16.242C8.18662 15.8515 8.18662 15.2184 8.57714 14.8278L15.6482 7.75676C16.0387 7.36624 16.6719 7.36624 17.0624 7.75676Z" fill="#F9F9F9"/>
</svg>
