<svg width="22" height="21" viewBox="0 0 22 21" fill="none" xmlns="http://www.w3.org/2000/svg">
<path d="M7.30855 18.1495C7.15555 18.3025 6.95706 18.4017 6.74286 18.4323L3.44303 18.9037C2.78306 18.998 2.21738 18.4323 2.31166 17.7723L2.78306 14.4725C2.81366 14.2583 2.91291 14.0598 3.06591 13.9068L13.4368 3.53592C13.8273 3.1454 14.4605 3.1454 14.851 3.53592L17.6794 6.36435C18.07 6.75487 18.07 7.38804 17.6794 7.77856L7.30855 18.1495Z" fill="#A8A8A8"/>
<path d="M16.4075 0.566662C16.7199 0.254243 17.2264 0.254243 17.5388 0.566662L20.6501 3.67793C20.9625 3.99035 20.9625 4.49688 20.6501 4.8093L19.6602 5.79925C19.3477 6.11167 18.8412 6.11167 18.5288 5.79925L15.4175 2.68798C15.1051 2.37556 15.1051 1.86903 15.4175 1.55661L16.4075 0.566662Z" fill="#A8A8A8"/>
</svg>
