<svg width="20" height="16" viewBox="0 0 20 16" fill="currentColor" xmlns="http://www.w3.org/2000/svg">
<path d="M6.45141 7.67996C8.58949 7.67996 10.3227 5.96074 10.3227 3.83998C10.3227 1.71922 8.58949 0 6.45141 0C4.31333 0 2.58008 1.71922 2.58008 3.83998C2.58008 5.96074 4.31333 7.67996 6.45141 7.67996Z" fill="currentColor"/>
<path d="M0 14.7725C0 11.2091 2.88876 8.32031 6.45222 8.32031C10.0157 8.32031 12.9044 11.2091 12.9044 14.7725V15.3021C12.9044 15.6877 12.5919 16.0003 12.2063 16.0003H0.698178C0.312585 16.0003 0 15.6877 0 15.3021V14.7725Z" fill="currentColor"/>
<path d="M0.698242 16L0.557617 15.9863C0.284725 15.9306 0.0703627 15.7153 0.0146484 15.4424L0 15.3018V14.7725C4.0974e-05 11.2091 2.88874 8.32035 6.45215 8.32031L6.78418 8.3291C10.1933 8.50188 12.9043 11.3204 12.9043 14.7725V15.3018L12.8906 15.4424C12.835 15.7154 12.6197 15.9306 12.3467 15.9863L12.2061 16H0.698242ZM6.45215 10.3203C4.25687 10.3203 2.43422 11.9095 2.06836 14H10.8369C10.4711 11.9094 8.64751 10.3203 6.45215 10.3203Z" fill="currentColor"/>
<path d="M13.5497 8.32031C17.1129 8.32058 20.0018 11.2092 20.0018 14.7725V15.3018C20.0018 15.6872 19.6889 15.9997 19.3035 16H12.8505C13.2359 15.9997 13.5488 15.6872 13.5488 15.3018V14.7725C13.5488 12.3846 12.2503 10.3013 10.3223 9.18555C11.2716 8.63599 12.3739 8.32033 13.5497 8.32031ZM13.5488 0C15.6865 0.000261721 17.4197 1.7193 17.4198 3.83984C17.4198 5.96043 15.6866 7.67943 13.5488 7.67969C12.2016 7.67963 11.0156 6.99644 10.3223 5.96094C10.7291 5.35318 10.9668 4.62406 10.9668 3.83984C10.9668 3.05565 10.729 2.3265 10.3223 1.71875C11.0156 0.683224 12.2016 5.8385e-05 13.5488 0Z" fill="currentColor"/>
<path d="M12.8505 16C13.2359 15.9997 13.5488 15.6872 13.5488 15.3018V14.7725C13.5488 12.3846 12.2503 10.3013 10.3223 9.18555C11.2716 8.63599 12.3739 8.32033 13.5497 8.32031C17.1129 8.32058 20.0018 11.2092 20.0018 14.7725V15.3018C20.0018 15.6872 19.6889 15.9997 19.3035 16H12.8505ZM14.3212 10.3887C14.9726 11.4589 15.3933 12.6852 15.5126 14H17.9335C17.6115 12.1604 16.1612 10.7104 14.3212 10.3887ZM15.4101 3.6543C15.3221 2.79869 14.6332 2.09922 13.7421 2.00977L13.5488 2C13.2528 2.00003 12.9747 2.06953 12.7265 2.18945C12.8615 2.64504 12.9441 3.12329 12.9628 3.61719L12.9667 3.83984C12.9667 4.41234 12.8815 4.9658 12.7265 5.48926C12.9747 5.6093 13.2526 5.67966 13.5488 5.67969L13.7421 5.66992C14.6969 5.57408 15.4198 4.77796 15.4198 3.83984L15.4101 3.6543ZM17.4198 3.83984C17.4198 5.96043 15.6866 7.67943 13.5488 7.67969C12.2016 7.67963 11.0156 6.99644 10.3223 5.96094C10.7291 5.35318 10.9668 4.62406 10.9668 3.83984C10.9668 3.05565 10.729 2.3265 10.3223 1.71875C11.0156 0.683224 12.2016 5.8385e-05 13.5488 0C15.6865 0.000261721 17.4197 1.7193 17.4198 3.83984Z" fill="#currentColor"/>
</svg>
