<svg width="20" height="16" viewBox="0 0 20 16" fill="none" xmlns="http://www.w3.org/2000/svg">
<path d="M6.45117 7.67996C8.58925 7.67996 10.3225 5.96074 10.3225 3.83998C10.3225 1.71922 8.58925 0 6.45117 0C4.31309 0 2.57983 1.71922 2.57983 3.83998C2.57983 5.96074 4.31309 7.67996 6.45117 7.67996Z" fill="#D8D8D8"/>
<path d="M6.45215 9.32031C9.4633 9.32031 11.9043 11.7613 11.9043 14.7725V15H1V14.7725C1.00004 11.7613 3.44103 9.32035 6.45215 9.32031Z" fill="#D8D8D8" stroke="#D8D8D8" stroke-width="2"/>
<mask id="path-3-inside-1_1396_571" fill="white">
<path d="M13.5498 8.32031C17.1133 8.32031 20.002 11.209 20.002 14.7725V15.3018C20.002 15.6874 19.6893 16 19.3037 16H12.8506C13.2362 16 13.5488 15.6874 13.5488 15.3018V14.7725C13.5488 12.3847 12.2511 10.3013 10.3232 9.18555C11.2725 8.63612 12.3741 8.32033 13.5498 8.32031ZM13.5488 0C15.6869 0 17.4199 1.71913 17.4199 3.83984C17.4199 5.96061 15.6869 7.67969 13.5488 7.67969C12.2012 7.67965 11.0155 6.99599 10.3223 5.95996C10.7289 5.35229 10.9668 4.62387 10.9668 3.83984C10.9668 3.05555 10.7292 2.32655 10.3223 1.71875C11.0156 0.683097 12.2015 3.32621e-05 13.5488 0Z"/>
</mask>
<path d="M13.5498 8.32031C17.1133 8.32031 20.002 11.209 20.002 14.7725V15.3018C20.002 15.6874 19.6893 16 19.3037 16H12.8506C13.2362 16 13.5488 15.6874 13.5488 15.3018V14.7725C13.5488 12.3847 12.2511 10.3013 10.3232 9.18555C11.2725 8.63612 12.3741 8.32033 13.5498 8.32031ZM13.5488 0C15.6869 0 17.4199 1.71913 17.4199 3.83984C17.4199 5.96061 15.6869 7.67969 13.5488 7.67969C12.2012 7.67965 11.0155 6.99599 10.3223 5.95996C10.7289 5.35229 10.9668 4.62387 10.9668 3.83984C10.9668 3.05555 10.7292 2.32655 10.3223 1.71875C11.0156 0.683097 12.2015 3.32621e-05 13.5488 0Z" fill="#D8D8D8"/>
<path d="M13.5498 8.32031L13.5498 6.32031L13.5498 6.32031L13.5498 8.32031ZM10.3232 9.18555L9.32141 7.45456L6.33057 9.18555L9.32141 10.9165L10.3232 9.18555ZM13.5488 0L13.5488 -2L13.5488 -2L13.5488 0ZM17.4199 3.83984L19.4199 3.83984L19.4199 3.83978L17.4199 3.83984ZM13.5488 7.67969L13.5488 9.67969H13.5488V7.67969ZM10.3223 5.95996L8.66006 4.84772L7.91581 5.95998L8.66008 7.07223L10.3223 5.95996ZM10.9668 3.83984L12.9668 3.83984L12.9668 3.83977L10.9668 3.83984ZM10.3223 1.71875L8.66032 0.606129L7.91546 1.71873L8.6603 2.83135L10.3223 1.71875ZM13.5498 8.32031V10.3203C16.0087 10.3203 18.002 12.3136 18.002 14.7725H20.002H22.002C22.002 10.1044 18.2178 6.32031 13.5498 6.32031V8.32031ZM20.002 14.7725H18.002V15.3018H20.002H22.002V14.7725H20.002ZM20.002 15.3018H18.002C18.002 14.5828 18.5847 14 19.3037 14V16V18C20.7939 18 22.002 16.7919 22.002 15.3018H20.002ZM19.3037 16V14H12.8506V16V18H19.3037V16ZM12.8506 16V18C14.3407 18 15.5488 16.7919 15.5488 15.3018H13.5488H11.5488C11.5488 14.5828 12.1316 14 12.8506 14V16ZM13.5488 15.3018H15.5488V14.7725H13.5488H11.5488V15.3018H13.5488ZM13.5488 14.7725H15.5488C15.5488 11.6412 13.8445 8.91271 11.3251 7.45456L10.3232 9.18555L9.32141 10.9165C10.6577 11.6899 11.5488 13.1283 11.5488 14.7725H13.5488ZM10.3232 9.18555L11.3251 10.9165C11.9797 10.5377 12.737 10.3203 13.5498 10.3203L13.5498 8.32031L13.5498 6.32031C12.0112 6.32033 10.5654 6.73457 9.32141 7.45456L10.3232 9.18555ZM13.5488 0V2C14.5975 2 15.4199 2.83889 15.4199 3.8399L17.4199 3.83984L19.4199 3.83978C19.4198 0.599376 16.7762 -2 13.5488 -2V0ZM17.4199 3.83984H15.4199C15.4199 4.8408 14.5976 5.67969 13.5488 5.67969V7.67969V9.67969C16.7762 9.67969 19.4199 7.08041 19.4199 3.83984H17.4199ZM13.5488 7.67969L13.5489 5.67969C12.8934 5.67967 12.3205 5.34982 11.9845 4.84769L10.3223 5.95996L8.66008 7.07223C9.71061 8.64216 11.509 9.67964 13.5488 9.67969L13.5488 7.67969ZM10.3223 5.95996L11.9845 7.0722C12.6026 6.1484 12.9668 5.03524 12.9668 3.83984H10.9668H8.9668C8.9668 4.21251 8.85514 4.55619 8.66006 4.84772L10.3223 5.95996ZM10.9668 3.83984L12.9668 3.83977C12.9668 2.64502 12.6034 1.53103 11.9842 0.606153L10.3223 1.71875L8.6603 2.83135C8.85493 3.12207 8.96678 3.46607 8.9668 3.83991L10.9668 3.83984ZM10.3223 1.71875L11.9842 2.83137C12.3199 2.32991 12.893 2.00002 13.5489 2L13.5488 0L13.5488 -2C11.5101 -1.99995 9.71128 -0.963719 8.66032 0.606129L10.3223 1.71875Z" fill="#D8D8D8" mask="url(#path-3-inside-1_1396_571)"/>
</svg>
