<svg width="42" height="49" viewBox="0 0 42 49" fill="none" xmlns="http://www.w3.org/2000/svg">
<path d="M1.05469 29.6875H3.08594V39.2891H8.08594V41H1.05469V29.6875ZM13.5359 41.1641C12.7234 41.1641 12.0073 40.9818 11.3875 40.6172C10.7729 40.2526 10.299 39.7396 9.96562 39.0781C9.63229 38.4167 9.46562 37.6536 9.46562 36.7891C9.46562 35.9141 9.63229 35.1484 9.96562 34.4922C10.299 33.8307 10.7729 33.3177 11.3875 32.9531C12.0073 32.5885 12.7234 32.4062 13.5359 32.4062C14.3536 32.4062 15.0698 32.5885 15.6844 32.9531C16.299 33.3177 16.7703 33.8307 17.0984 34.4922C17.4266 35.1484 17.5906 35.9141 17.5906 36.7891C17.5906 37.6536 17.4266 38.4167 17.0984 39.0781C16.7703 39.7396 16.299 40.2526 15.6844 40.6172C15.0698 40.9818 14.3536 41.1641 13.5359 41.1641ZM13.5516 39.5781C13.9891 39.5781 14.3589 39.4557 14.6609 39.2109C14.9682 38.9609 15.1974 38.625 15.3484 38.2031C15.4995 37.7812 15.575 37.3073 15.575 36.7812C15.575 36.25 15.4995 35.7734 15.3484 35.3516C15.1974 34.9297 14.9682 34.5964 14.6609 34.3516C14.3589 34.1016 13.9891 33.9766 13.5516 33.9766C13.1036 33.9766 12.7234 34.1016 12.4109 34.3516C12.0984 34.5964 11.8641 34.9297 11.7078 35.3516C11.5516 35.7734 11.4734 36.25 11.4734 36.7812C11.4734 37.3125 11.5516 37.7891 11.7078 38.2109C11.8641 38.6276 12.0984 38.9609 12.4109 39.2109C12.7234 39.4557 13.1036 39.5781 13.5516 39.5781ZM23.0328 44.3594C22.2984 44.3594 21.65 44.2526 21.0875 44.0391C20.5302 43.8307 20.0927 43.5312 19.775 43.1406C19.4573 42.7552 19.2724 42.2943 19.2203 41.7578H21.2047C21.2828 42.1224 21.4833 42.3958 21.8062 42.5781C22.1292 42.7604 22.5484 42.8516 23.0641 42.8516C23.6943 42.8516 24.1812 42.7083 24.525 42.4219C24.8687 42.1406 25.0406 41.6979 25.0406 41.0938V39.4766H24.9391C24.8089 39.7422 24.6474 39.974 24.4547 40.1719C24.2672 40.3646 24.0094 40.5312 23.6812 40.6719C23.3531 40.8125 22.9599 40.8828 22.5016 40.8828C21.8349 40.8828 21.2359 40.724 20.7047 40.4062C20.1786 40.0833 19.762 39.6068 19.4547 38.9766C19.1474 38.3411 18.9937 37.5755 18.9937 36.6797C18.9937 35.7786 19.1474 35.0078 19.4547 34.3672C19.762 33.7214 20.1812 33.2344 20.7125 32.9062C21.2437 32.5729 21.8401 32.4062 22.5016 32.4062C22.9703 32.4062 23.3661 32.4844 23.6891 32.6406C24.012 32.7917 24.2594 32.9661 24.4312 33.1641C24.6031 33.3568 24.775 33.6068 24.9469 33.9141H25.0484V32.5156H27.0094V41.1406C27.0094 41.8385 26.8401 42.4297 26.5016 42.9141C26.1682 43.3984 25.7021 43.7604 25.1031 44C24.5042 44.2396 23.8141 44.3594 23.0328 44.3594ZM23.0406 39.3125C23.4677 39.3125 23.8323 39.2083 24.1344 39C24.4365 38.7917 24.6656 38.4948 24.8219 38.1094C24.9833 37.7188 25.0641 37.2526 25.0641 36.7109C25.0641 36.1693 24.9833 35.6979 24.8219 35.2969C24.6656 34.8958 24.4365 34.5859 24.1344 34.3672C23.8375 34.1484 23.4729 34.0391 23.0406 34.0391C22.6135 34.0391 22.249 34.1536 21.9469 34.3828C21.6448 34.6068 21.4156 34.9219 21.2594 35.3281C21.1031 35.7292 21.025 36.1901 21.025 36.7109C21.025 37.237 21.1031 37.6953 21.2594 38.0859C21.4156 38.4766 21.6448 38.7786 21.9469 38.9922C22.249 39.2057 22.6135 39.3125 23.0406 39.3125ZM29.1313 32.5156H31.1156V41H29.1313V32.5156ZM30.1156 31.3047C29.9125 31.3047 29.7224 31.2578 29.5453 31.1641C29.3682 31.0651 29.2276 30.9323 29.1234 30.7656C29.0193 30.599 28.9672 30.4193 28.9672 30.2266C28.9672 30.0286 29.0193 29.8464 29.1234 29.6797C29.2276 29.513 29.3682 29.3828 29.5453 29.2891C29.7224 29.1953 29.9125 29.1484 30.1156 29.1484C30.3292 29.1484 30.5245 29.1953 30.7016 29.2891C30.8786 29.3828 31.0193 29.513 31.1234 29.6797C31.2276 29.8464 31.2797 30.0286 31.2797 30.2266C31.2797 30.4193 31.2276 30.599 31.1234 30.7656C31.0193 30.9323 30.8786 31.0651 30.7016 31.1641C30.5245 31.2578 30.3292 31.3047 30.1156 31.3047ZM35.2219 41H33.2375V32.5156H35.1359V33.9531H35.2297C35.438 33.4635 35.7557 33.0833 36.1828 32.8125C36.6099 32.5417 37.1359 32.4062 37.7609 32.4062C38.3495 32.4062 38.8599 32.5312 39.2922 32.7812C39.7297 33.026 40.0656 33.388 40.3 33.8672C40.5396 34.3464 40.6594 34.9219 40.6594 35.5938V41H38.675V35.8984C38.675 35.5182 38.6099 35.1953 38.4797 34.9297C38.3495 34.6589 38.162 34.4505 37.9172 34.3047C37.6724 34.1589 37.3729 34.0859 37.0187 34.0859C36.6646 34.0859 36.3521 34.1615 36.0812 34.3125C35.8104 34.4635 35.5995 34.6849 35.4484 34.9766C35.2974 35.2682 35.2219 35.6172 35.2219 36.0234V41Z" fill="#D8D8D8"/>
<path d="M20.2893 12.9999L16.8147 9.72775C16.3953 9.33285 16.3953 8.66505 16.8147 8.27015L20.2884 4.99902" stroke="#D8D8D8" stroke-width="2" stroke-linecap="round"/>
<path d="M29.5 9H18.5" stroke="#D8D8D8" stroke-width="2" stroke-linecap="round"/>
<path d="M22.4763 5.23529V3C22.4763 1.89543 21.583 1 20.481 1H14.4953C13.3933 1 12.5 1.89543 12.5 3V15C12.5 16.1046 13.3933 17 14.4953 17H20.481C21.583 17 22.4763 16.1046 22.4763 15V12.2941" stroke="#D8D8D8" stroke-width="2" stroke-linecap="round"/>
</svg>
