<svg width="52" height="45" viewBox="0 0 52 45" fill="none" xmlns="http://www.w3.org/2000/svg">
<path d="M51.3672 34.0469H46.5078V32.5156H51.3672V34.0469ZM49.7031 30.4844V38.4531C49.7031 38.7083 49.7422 38.9089 49.8203 39.0547C49.8984 39.1953 50.0026 39.2943 50.1328 39.3516C50.2682 39.4036 50.4297 39.4323 50.6172 39.4375C50.8464 39.4427 51.1354 39.4297 51.4844 39.3984V41.0312C51.1615 41.0885 50.7865 41.1172 50.3594 41.1172C49.849 41.1172 49.3932 41.0312 48.9922 40.8594C48.5911 40.6823 48.276 40.4193 48.0469 40.0703C47.8177 39.7214 47.7057 39.2891 47.7109 38.7734V30.4844H49.7031Z" fill="#DFDFDF"/>
<path d="M43.0498 32.5156H45.0264V41H43.1123V39.5H43.0186C42.8102 39.9896 42.4873 40.3802 42.0498 40.6719C41.6175 40.9635 41.0889 41.1094 40.4639 41.1094C39.9066 41.1094 39.4144 40.9844 38.9873 40.7344C38.5654 40.4792 38.2347 40.112 37.9951 39.6328C37.7607 39.1536 37.6436 38.5807 37.6436 37.9141V32.5156H39.6279V37.6094C39.6279 37.9635 39.693 38.2734 39.8232 38.5391C39.9587 38.8047 40.1488 39.0104 40.3936 39.1562C40.6383 39.2969 40.917 39.3672 41.2295 39.3672C41.542 39.3672 41.8363 39.2943 42.1123 39.1484C42.3936 38.9974 42.6201 38.776 42.792 38.4844C42.9639 38.1875 43.0498 37.8359 43.0498 37.4297V32.5156Z" fill="#DFDFDF"/>
<path d="M31.8267 41.1641C31.0142 41.1641 30.298 40.9818 29.6782 40.6172C29.0636 40.2526 28.5897 39.7396 28.2563 39.0781C27.923 38.4167 27.7563 37.6536 27.7563 36.7891C27.7563 35.9141 27.923 35.1484 28.2563 34.4922C28.5897 33.8307 29.0636 33.3177 29.6782 32.9531C30.298 32.5885 31.0142 32.4062 31.8267 32.4062C32.6444 32.4062 33.3605 32.5885 33.9751 32.9531C34.5897 33.3177 35.061 33.8307 35.3892 34.4922C35.7173 35.1484 35.8813 35.9141 35.8813 36.7891C35.8813 37.6536 35.7173 38.4167 35.3892 39.0781C35.061 39.7396 34.5897 40.2526 33.9751 40.6172C33.3605 40.9818 32.6444 41.1641 31.8267 41.1641ZM31.8423 39.5781C32.2798 39.5781 32.6496 39.4557 32.9517 39.2109C33.2589 38.9609 33.4881 38.625 33.6392 38.2031C33.7902 37.7812 33.8657 37.3073 33.8657 36.7812C33.8657 36.25 33.7902 35.7734 33.6392 35.3516C33.4881 34.9297 33.2589 34.5964 32.9517 34.3516C32.6496 34.1016 32.2798 33.9766 31.8423 33.9766C31.3944 33.9766 31.0142 34.1016 30.7017 34.3516C30.3892 34.5964 30.1548 34.9297 29.9985 35.3516C29.8423 35.7734 29.7642 36.25 29.7642 36.7812C29.7642 37.3125 29.8423 37.7891 29.9985 38.2109C30.1548 38.6276 30.3892 38.9609 30.7017 39.2109C31.0142 39.4557 31.3944 39.5781 31.8423 39.5781Z" fill="#DFDFDF"/>
<path d="M22.0327 44.3594C21.2983 44.3594 20.6499 44.2526 20.0874 44.0391C19.5301 43.8307 19.0926 43.5312 18.7749 43.1406C18.4572 42.7552 18.2723 42.2943 18.2202 41.7578H20.2046C20.2827 42.1224 20.4832 42.3958 20.8062 42.5781C21.1291 42.7604 21.5483 42.8516 22.064 42.8516C22.6942 42.8516 23.1812 42.7083 23.5249 42.4219C23.8687 42.1406 24.0405 41.6979 24.0405 41.0938V39.4766H23.939C23.8088 39.7422 23.6473 39.974 23.4546 40.1719C23.2671 40.3646 23.0093 40.5312 22.6812 40.6719C22.353 40.8125 21.9598 40.8828 21.5015 40.8828C20.8348 40.8828 20.2358 40.724 19.7046 40.4062C19.1785 40.0833 18.7619 39.6068 18.4546 38.9766C18.1473 38.3411 17.9937 37.5755 17.9937 36.6797C17.9937 35.7786 18.1473 35.0078 18.4546 34.3672C18.7619 33.7214 19.1812 33.2344 19.7124 32.9062C20.2437 32.5729 20.84 32.4062 21.5015 32.4062C21.9702 32.4062 22.366 32.4844 22.689 32.6406C23.0119 32.7917 23.2593 32.9661 23.4312 33.1641C23.603 33.3568 23.7749 33.6068 23.9468 33.9141H24.0483V32.5156H26.0093V41.1406C26.0093 41.8385 25.84 42.4297 25.5015 42.9141C25.1681 43.3984 24.702 43.7604 24.103 44C23.5041 44.2396 22.814 44.3594 22.0327 44.3594ZM22.0405 39.3125C22.4676 39.3125 22.8322 39.2083 23.1343 39C23.4364 38.7917 23.6655 38.4948 23.8218 38.1094C23.9832 37.7188 24.064 37.2526 24.064 36.7109C24.064 36.1693 23.9832 35.6979 23.8218 35.2969C23.6655 34.8958 23.4364 34.5859 23.1343 34.3672C22.8374 34.1484 22.4728 34.0391 22.0405 34.0391C21.6134 34.0391 21.2489 34.1536 20.9468 34.3828C20.6447 34.6068 20.4155 34.9219 20.2593 35.3281C20.103 35.7292 20.0249 36.1901 20.0249 36.7109C20.0249 37.237 20.103 37.6953 20.2593 38.0859C20.4155 38.4766 20.6447 38.7786 20.9468 38.9922C21.2489 39.2057 21.6134 39.3125 22.0405 39.3125Z" fill="#DFDFDF"/>
<path d="M12.5361 41.1641C11.7236 41.1641 11.0075 40.9818 10.3877 40.6172C9.77311 40.2526 9.29915 39.7396 8.96582 39.0781C8.63249 38.4167 8.46582 37.6536 8.46582 36.7891C8.46582 35.9141 8.63249 35.1484 8.96582 34.4922C9.29915 33.8307 9.77311 33.3177 10.3877 32.9531C11.0075 32.5885 11.7236 32.4062 12.5361 32.4062C13.3538 32.4062 14.07 32.5885 14.6846 32.9531C15.2992 33.3177 15.7705 33.8307 16.0986 34.4922C16.4268 35.1484 16.5908 35.9141 16.5908 36.7891C16.5908 37.6536 16.4268 38.4167 16.0986 39.0781C15.7705 39.7396 15.2992 40.2526 14.6846 40.6172C14.07 40.9818 13.3538 41.1641 12.5361 41.1641ZM12.5518 39.5781C12.9893 39.5781 13.359 39.4557 13.6611 39.2109C13.9684 38.9609 14.1976 38.625 14.3486 38.2031C14.4997 37.7812 14.5752 37.3073 14.5752 36.7812C14.5752 36.25 14.4997 35.7734 14.3486 35.3516C14.1976 34.9297 13.9684 34.5964 13.6611 34.3516C13.359 34.1016 12.9893 33.9766 12.5518 33.9766C12.1038 33.9766 11.7236 34.1016 11.4111 34.3516C11.0986 34.5964 10.8643 34.9297 10.708 35.3516C10.5518 35.7734 10.4736 36.25 10.4736 36.7812C10.4736 37.3125 10.5518 37.7891 10.708 38.2109C10.8643 38.6276 11.0986 38.9609 11.4111 39.2109C11.7236 39.4557 12.1038 39.5781 12.5518 39.5781Z" fill="#DFDFDF"/>
<path d="M0.0546875 29.6875H2.08594V39.2891H7.08594V41H0.0546875V29.6875Z" fill="#DFDFDF"/>
<path d="M29.4831 4.3133C29.8381 3.93631 30.4169 3.89637 30.8191 4.20491L30.8972 4.27131L34.3708 7.54182L34.5183 7.69612C35.1604 8.44298 35.1605 9.55475 34.5183 10.3016L34.3708 10.4559L30.8962 13.7274L30.8181 13.7938C30.416 14.1021 29.8381 14.062 29.4831 13.6854C29.1045 13.2833 29.1231 12.6499 29.5251 12.2713L32.9997 8.99983V8.99787L29.5261 5.72639L29.4548 5.65315C29.123 5.27024 29.1284 4.69023 29.4831 4.3133Z" fill="#DFDFDF"/>
<path d="M33.4448 8.00098L33.5474 8.00586C34.0517 8.05703 34.4448 8.48318 34.4448 9.00098C34.4448 9.51877 34.0517 9.94492 33.5474 9.99609L33.4448 10.001H24.98C24.4277 10.001 23.98 9.55326 23.98 9.00098C23.98 8.44869 24.4277 8.00098 24.98 8.00098H33.4448Z" fill="#DFDFDF"/>
<path d="M25.9766 5.23535V3C25.9766 2.4456 25.5287 2.00022 24.9814 2H18.9951C18.4478 2.00008 18 2.44552 18 3V15C18 15.5545 18.4477 15.9999 18.9951 16H24.9814C25.5287 15.9998 25.9766 15.5544 25.9766 15V12.2939C25.9766 11.7417 26.4243 11.2939 26.9766 11.2939C27.5287 11.2941 27.9765 11.7418 27.9766 12.2939V15C27.9766 16.6545 26.6378 17.9998 24.9814 18H18.9951C17.3387 17.9999 16 16.6546 16 15V3C16 1.34543 17.3387 7.72609e-05 18.9951 0H24.9814C26.6378 0.000219696 27.9766 1.34553 27.9766 3V5.23535C27.9765 5.78752 27.5287 6.23521 26.9766 6.23535C26.4243 6.23535 25.9766 5.78761 25.9766 5.23535Z" fill="#DFDFDF"/>
</svg>
