<svg width="24" height="24" viewBox="0 0 24 24" fill="none" xmlns="http://www.w3.org/2000/svg">
<g clip-path="url(#clip0_269_1057)">
<path d="M23.999 0H0.196289V24H23.999V0Z" fill="white"/>
<path d="M4.16357 7L16.0649 19L4.16357 7Z" fill="#D8D8D8"/>
<path d="M4.16357 7L16.0649 19" stroke="#D8D8D8" stroke-width="1.5" stroke-linecap="round"/>
<path fill-rule="evenodd" clip-rule="evenodd" d="M20.5276 12C20.5276 12.923 19.9014 14.0148 18.345 14.9564C16.9298 15.8126 14.9316 16.4078 12.6439 16.4902L14.0285 17.8863C18.5817 17.3428 22.0153 14.914 22.0153 12C22.0153 8.68629 17.5749 6 12.0975 6C9.00365 6 6.24066 6.85703 4.42184 8.20007L5.48883 9.27591C5.60318 9.1976 5.72349 9.1201 5.84995 9.0436C7.37675 8.11992 9.58204 7.5 12.0975 7.5C14.613 7.5 16.8183 8.11992 18.345 9.0436C19.9014 9.98519 20.5276 11.077 20.5276 12ZM10.461 16.4106C8.62987 16.2076 7.0354 15.6736 5.84995 14.9564C4.29353 14.0148 3.66736 12.923 3.66736 12C3.66736 11.46 3.88171 10.8622 4.37132 10.2705L3.31708 9.20748C2.59077 10.0416 2.17969 10.9917 2.17969 12C2.17969 15.3015 6.58751 17.9803 12.0372 17.9999L10.461 16.4106Z" fill="#D8D8D8"/>
<path d="M11.6025 9.5C13.2395 9.50021 14.5732 10.8394 14.5732 12.5C14.5732 13.675 13.9038 14.6892 12.9316 15.1816L8.94434 11.1602C9.43281 10.1742 10.4411 9.5 11.6025 9.5Z" fill="#D8D8D8" stroke="#D8D8D8"/>
</g>
<defs>
<clipPath id="clip0_269_1057">
<rect width="23.8027" height="24" fill="white" transform="translate(0.196289)"/>
</clipPath>
</defs>
</svg>
