<svg width="53" height="52" viewBox="0 0 53 52" fill="none" xmlns="http://www.w3.org/2000/svg">
<path d="M26.5 0C40.8594 0 52.5 11.6406 52.5 26C52.5 40.3594 40.8594 52 26.5 52C12.1406 52 0.5 40.3594 0.5 26C0.5 11.6406 12.1406 0 26.5 0ZM26.5 18C25.3954 18 24.5 18.8954 24.5 20V24H20.5C19.3954 24 18.5 24.8954 18.5 26C18.5 27.1045 19.3955 28 20.5 28H24.5V32C24.5 33.1045 25.3955 34 26.5 34C27.6046 34 28.5 33.1046 28.5 32V28H32.5C33.6046 28 34.5 27.1046 34.5 26C34.5 24.8954 33.6046 24 32.5 24H28.5V20C28.5 18.8954 27.6046 18 26.5 18Z" fill="#D8D8D8"/>
</svg>
