<svg width="24" height="27" viewBox="0 0 24 27" fill="none" xmlns="http://www.w3.org/2000/svg">
<path d="M9.10941 1.88675C10.1706 -0.628917 13.8304 -0.628917 14.8916 1.88675C15.799 4.0376 18.0824 5.32188 20.4493 5.01175C23.2173 4.64878 25.0477 7.73407 23.3409 9.88675C21.8812 11.7275 21.8812 14.295 23.3409 16.1358C25.0474 18.2884 23.2172 21.3737 20.4493 21.0108C18.0823 20.7006 15.799 21.9849 14.8916 24.1358C13.8303 26.6513 10.1707 26.6513 9.10941 24.1358C8.20204 21.9849 5.91862 20.7006 3.5518 21.0108C0.783725 21.3737 -1.04646 18.2884 0.660195 16.1358C2.11974 14.295 2.11974 11.7275 0.660195 9.88675C-1.04668 7.73407 0.783655 4.64878 3.5518 5.01175C5.91857 5.32189 8.20202 4.03761 9.10941 1.88675ZM12.001 7.58988C8.98848 7.58988 6.54594 10.0177 6.54594 13.0118C6.54619 16.0056 8.98863 18.4327 12.001 18.4327C15.0133 18.4325 17.4549 16.0056 17.4551 13.0118C17.4551 10.0177 15.0134 7.58999 12.001 7.58988Z" fill="#D8D8D8"/>
</svg>
