<svg width="24" height="34" viewBox="0 0 24 34" fill="none" xmlns="http://www.w3.org/2000/svg">
<path d="M9.10944 1.88675C10.1706 -0.628917 13.8305 -0.628917 14.8917 1.88675C15.7991 4.03757 18.0824 5.32096 20.4493 5.01078C23.2173 4.6478 25.0477 7.73407 23.3409 9.88675C21.8813 11.7275 21.8812 14.295 23.3409 16.1358C25.0473 18.2884 23.2172 21.3737 20.4493 21.0108C18.0825 20.7006 15.7992 21.9842 14.8917 24.1348C13.8305 26.6506 10.1706 26.6506 9.10944 24.1348C8.20193 21.9842 5.91846 20.7006 3.55182 21.0108C0.783782 21.3737 -1.04633 18.2884 0.660221 16.1358C2.11976 14.295 2.11973 11.7275 0.660221 9.88675C-1.04671 7.73407 0.783664 4.6478 3.55182 5.01078C5.91859 5.32095 8.20201 4.03757 9.10944 1.88675ZM12.001 7.58988C8.98863 7.58988 6.54617 10.0169 6.54596 13.0108C6.54596 16.0049 8.98851 18.4327 12.001 18.4327C15.0135 18.4325 17.4551 16.0048 17.4551 13.0108C17.4549 10.0169 15.0133 7.59001 12.001 7.58988Z" fill="#3A3A3A"/>
<path d="M14.0006 31.3066C14.0006 32.4112 13.1052 33.3066 12.0006 33.3066C10.8961 33.3066 10.0006 32.4112 10.0006 31.3066C10.0006 30.2021 10.8961 29.3066 12.0006 29.3066C13.1052 29.3066 14.0006 30.2021 14.0006 31.3066Z" fill="#3A3A3A"/>
</svg>
