<svg width="20" height="26" viewBox="0 0 20 26" fill="none" xmlns="http://www.w3.org/2000/svg">
<path d="M19 4.95288C19.5523 4.95288 20 5.4006 20 5.95288V17.7371C20 18.2708 19.7864 18.7824 19.4072 19.158L16.25 22.2859L13.085 25.4207C12.7105 25.7916 12.2039 25.9998 11.6768 25.9998H1C0.447715 25.9998 0 25.552 0 24.9998V5.95288C0 5.4006 0.447715 4.95288 1 4.95288H19ZM5.625 8.66675C5.10723 8.66675 4.6875 9.08648 4.6875 9.60425V10.8337H3.42871C2.916 10.8337 2.50021 11.2488 2.5 11.7615C2.5 12.2743 2.91587 12.6902 3.42871 12.6902H4.6875V13.9197C4.6875 14.4374 5.10723 14.8572 5.625 14.8572C6.14277 14.8572 6.5625 14.4374 6.5625 13.9197V12.6902H7.82129C8.33412 12.6902 8.75 12.2743 8.75 11.7615C8.74979 11.2488 8.334 10.8337 7.82129 10.8337H6.5625V9.60425C6.5625 9.08648 6.14277 8.66675 5.625 8.66675Z" fill="#D8D8D8"/>
<path d="M16.875 22.9048L19.1481 20.6533C19.4638 20.3407 20 20.5643 20 21.0086V25.5C20 25.7762 19.7761 26 19.5 26H14.9653C14.5187 26 14.2962 25.4591 14.6135 25.1448L16.875 22.9048Z" fill="#D8D8D8"/>
<rect width="20" height="3.71429" rx="0.5" fill="#D8D8D8"/>
</svg>
