<svg width="24" height="24" viewBox="0 0 24 24" fill="none" xmlns="http://www.w3.org/2000/svg">
<rect width="24" height="24" fill="white"/>
<path d="M13.6915 4.97852V4.15234H10.7335V4.97852H13.6915ZM18.5899 4.97852C18.896 4.97862 19.1779 5.14024 19.3272 5.40137C19.642 5.95193 19.2351 6.63066 18.5899 6.63086H5.41318C4.76787 6.63086 4.36016 5.952 4.6749 5.40137C4.82426 5.14012 5.10701 4.97852 5.41318 4.97852H9.04307V4.15234C9.04307 3.23987 9.79998 2.5 10.7335 2.5H13.6915C14.625 2.50008 15.3819 3.23992 15.3819 4.15234V4.97852H18.5899Z" fill="#D8D8D8"/>
<path d="M17.281 7.45654C18.2927 7.45654 19.0778 8.3194 18.9597 9.30152L17.6673 20.0407C17.5671 20.8727 16.8457 21.5 15.9885 21.5H8.00837C7.15125 21.5 6.42979 20.8727 6.32964 20.0407L5.03717 9.30152C4.91907 8.3194 5.70417 7.45654 6.7159 7.45654H17.281ZM9.04087 10.7609C8.57411 10.7609 8.19572 11.1307 8.19572 11.587V18.1957C8.19572 18.6519 8.57411 19.0218 9.04087 19.0218C9.50744 19.0215 9.88601 18.6518 9.88601 18.1957V11.587C9.88601 11.1309 9.50744 10.7611 9.04087 10.7609ZM11.9989 10.7609C11.5321 10.7609 11.1537 11.1307 11.1537 11.587V18.1957C11.1537 18.6519 11.5321 19.0218 11.9989 19.0218C12.4654 19.0215 12.844 18.6518 12.844 18.1957V11.587C12.844 11.1309 12.4654 10.7611 11.9989 10.7609ZM14.9569 10.7609C14.4901 10.7609 14.1117 11.1307 14.1117 11.587V18.1957C14.1117 18.6519 14.4901 19.0218 14.9569 19.0218C15.4234 19.0215 15.802 18.6518 15.802 18.1957V11.587C15.802 11.1309 15.4234 10.7611 14.9569 10.7609Z" fill="#D8D8D8"/>
</svg>
