<svg width="18" height="23" viewBox="0 0 18 23" fill="none" xmlns="http://www.w3.org/2000/svg">
<path d="M11.046 3V2H7.46587V3H11.046ZM16.9756 3C17.3462 3 17.6884 3.19562 17.8692 3.51172C18.2503 4.17829 17.7568 5 16.9756 5H1.02544C0.244241 5 -0.249198 4.17829 0.131888 3.51172C0.31274 3.19567 0.654943 3 1.02544 3H5.419V2C5.419 0.89543 6.33582 0 7.46587 0H11.046C12.176 0 13.0918 0.89543 13.0918 2V3H16.9756Z" fill="#D8D8D8"/>
<path d="M15.3934 6C16.6181 6 17.5685 7.04451 17.4255 8.2334L15.8609 21.2334C15.7397 22.2406 14.8664 23 13.8288 23H4.1686C3.13103 23 2.25768 22.2406 2.13645 21.2334L0.571873 8.2334C0.428919 7.04451 1.3793 6 2.60402 6H15.3934ZM5.41846 10C4.85343 10 4.39539 10.4477 4.39539 11V19C4.39539 19.5523 4.85343 20 5.41846 20C5.98326 19.9997 6.44152 19.5521 6.44152 19V11C6.44152 10.4479 5.98326 10.0003 5.41846 10ZM8.99919 10C8.43417 10 7.97613 10.4477 7.97613 11V19C7.97613 19.5523 8.43417 20 8.99919 20C9.564 19.9997 10.0223 19.5521 10.0223 19V11C10.0223 10.4479 9.564 10.0003 8.99919 10ZM12.5799 10C12.0149 10 11.5569 10.4477 11.5569 11V19C11.5569 19.5523 12.0149 20 12.5799 20C13.1447 19.9997 13.603 19.5521 13.603 19V11C13.603 10.4479 13.1447 10.0003 12.5799 10Z" fill="#D8D8D8"/>
</svg>
