<svg width="33" height="32" viewBox="0 0 33 32" fill="none" xmlns="http://www.w3.org/2000/svg">
<path d="M32.8198 16C32.8198 24.8366 25.6564 32 16.8198 32C7.98327 32 0.819824 24.8366 0.819824 16C0.819824 7.16344 7.98327 0 16.8198 0C25.6564 0 32.8198 7.16344 32.8198 16Z" fill="#CECECE"/>
<path d="M11.2944 15.6357C10.9987 15.3458 10.9946 14.8709 11.2846 14.5752L16.2846 9.47461C16.4247 9.33193 16.6159 9.25104 16.8158 9.25C17.016 9.24901 17.2085 9.32816 17.35 9.46973L22.4496 14.5693C22.7425 14.8622 22.7425 15.337 22.4496 15.6299C22.1567 15.9228 21.682 15.9228 21.3891 15.6299L17.5697 11.8105L17.5697 22C17.5697 22.4142 17.234 22.75 16.8197 22.75C16.4055 22.75 16.0697 22.4142 16.0697 22L16.0697 11.8359L12.3549 15.625C12.0649 15.9206 11.5901 15.9257 11.2944 15.6357Z" fill="#EDEDED"/>
</svg>
